<svg xmlns="http://www.w3.org/2000/svg" viewBox="0 0 706.74 533.94"><defs><style>.cls-1{fill:#a2b8c7;}.cls-2{fill:#368ac1;}.cls-3{fill:none;}.cls-4{fill:#517bbd;}.cls-5{fill:#e74335;}.cls-6{fill:#f3960e;}.cls-7{fill:#325da6;}.cls-8{fill:#c7d3dd;}.cls-9{fill:#008ec6;}.cls-10{fill:#27698f;}</style></defs><g id="Layer_2" data-name="Layer 2"><g id="Layer_1-2" data-name="Layer 1"><path class="cls-1" d="M69.84,458.64v-3.33A3.49,3.49,0,0,0,67.51,452v-1.38A3.5,3.5,0,0,0,64,447.16H51.22L51,439.88a3.48,3.48,0,0,0-3.28-2.32V423a8.16,8.16,0,0,0-4.11-7.08L21.3,403.2a5.8,5.8,0,0,0-10.82,2.89h0L9.35,440a5.82,5.82,0,0,0-4.69,5.7,5.73,5.73,0,0,0,1.08,3.36l-3.32,3.86A10.08,10.08,0,0,0,3,466.6l3.49,3.49a8.1,8.1,0,0,0,5.76,2.39H24.44v-2.33H22.12v-6.38l-4-3.2a5.76,5.76,0,0,1-2.15-3.9l-.84-7.51a5.73,5.73,0,0,0,1.17-3.46,5.79,5.79,0,0,0-2.14-4.46l5.41-30.31a5.18,5.18,0,0,0,.58-.47L32.09,422.4a4.59,4.59,0,0,0-.66,2.35,4.65,4.65,0,0,0,3.49,4.49v8.32H34.5a3.49,3.49,0,0,0-3.42,2.8L28,456l0,2.68a8.15,8.15,0,0,0,5.82,13.85H64a8.14,8.14,0,0,0,5.82-13.84ZM10.48,442.21A3.5,3.5,0,1,1,7,445.7a3.5,3.5,0,0,1,3.5-3.49Zm6.18,20.18,3.13,2.5v5.26H12.2a5.78,5.78,0,0,1-4.11-1.71L4.6,465a7.74,7.74,0,0,1-.41-10.51l3.25-3.79a5.83,5.83,0,0,0,3,.87,5.72,5.72,0,0,0,2.51-.59l.67,6a8.08,8.08,0,0,0,3,5.46ZM12,440.11c-.11,0-.21-.08-.32-.1l1-29.38A5.73,5.73,0,0,0,16.3,412a4.65,4.65,0,0,0,.74-.08Zm4.3-30.49a3.49,3.49,0,1,1,3.49-3.49,3.5,3.5,0,0,1-3.49,3.49Zm34.92,39.87H64a1.16,1.16,0,0,1,1.16,1.16v1.17H64.06v2.32h2.29a1.16,1.16,0,0,1,1.16,1.17V457a8,8,0,0,0-3.49-.8H51.22ZM21.56,408.58a5.63,5.63,0,0,0,.53-2.25l20.37,11.6A5.86,5.86,0,0,1,45.4,423v14.57H37.25v-8.32a4.64,4.64,0,1,0-3.52-8.48Zm12.2,16.17a2.33,2.33,0,1,1,2.32,2.33,2.33,2.33,0,0,1-2.32-2.33Zm-3.5,31.55,3.1-15.48a1.18,1.18,0,0,1,1.14-.94H47.72a1.18,1.18,0,0,1,1.17,1.17v15.13H33.76a8,8,0,0,0-3.5.8ZM64,470.15H33.76a5.82,5.82,0,0,1,0-11.64H64a5.82,5.82,0,1,1,0,11.64Z"/><path class="cls-1" d="M62.86,459.67a4.64,4.64,0,0,0-3.5,1.61,4.59,4.59,0,0,0-7,0,4.59,4.59,0,0,0-7,0,4.6,4.6,0,0,0-7,0,4.6,4.6,0,0,0-3.49-1.61,4.66,4.66,0,1,0,3.49,7.71,4.62,4.62,0,0,0,7,0,4.61,4.61,0,0,0,7,0,4.61,4.61,0,0,0,7,0,4.65,4.65,0,1,0,3.5-7.71Zm-27.94,7a2.33,2.33,0,1,1,2.33-2.33,2.34,2.34,0,0,1-2.33,2.33Zm7,0a2.33,2.33,0,1,1,2.33-2.33,2.33,2.33,0,0,1-2.33,2.33Zm7,0a2.33,2.33,0,1,1,2.33-2.33,2.33,2.33,0,0,1-2.33,2.33Zm7,0a2.33,2.33,0,1,1,2.33-2.33,2.34,2.34,0,0,1-2.33,2.33Zm7,0a2.33,2.33,0,1,1,2.32-2.33,2.33,2.33,0,0,1-2.32,2.33Z"/><polygon class="cls-2" points="38.43 443.18 38.43 442.35 35.07 442.35 35.07 445.7 35.91 445.7 35.91 444.02 39.72 448.21 35.91 452.4 35.91 450.73 35.07 450.73 35.07 454.08 38.43 454.08 38.43 453.24 36.75 453.24 40.94 449.43 45.13 453.24 43.45 453.24 43.45 454.08 46.81 454.08 46.81 450.73 45.97 450.73 45.97 452.4 42.16 448.21 45.97 444.02 45.97 445.7 46.81 445.7 46.81 442.35 43.45 442.35 43.45 443.18 45.13 443.18 40.94 446.99 36.75 443.18 38.43 443.18"/><polygon class="cls-2" points="379.02 310.24 379.02 311.9 382.33 311.9 374.04 319.44 365.75 311.9 369.07 311.9 369.07 310.24 362.44 310.24 362.44 316.88 364.1 316.88 364.1 313.56 371.63 321.85 364.1 330.14 364.1 326.82 362.44 326.82 362.44 333.46 369.07 333.46 369.07 331.8 365.75 331.8 374.04 324.26 382.33 331.8 379.02 331.8 379.02 333.46 385.65 333.46 385.65 326.82 383.99 326.82 383.99 330.14 376.46 321.85 383.99 313.56 383.99 316.88 385.65 316.88 385.65 310.24 379.02 310.24"/><path class="cls-1" d="M400,323.08h-3a23.05,23.05,0,0,1-21.82,21.82v3A26,26,0,0,0,400,323.08Z"/><path class="cls-1" d="M372.82,344.9A23.05,23.05,0,0,1,351,323.08h-2.95a26,26,0,0,0,24.77,24.77v-3Z"/><path class="cls-1" d="M375.27,298.8a23.05,23.05,0,0,1,21.82,21.82h3a26,26,0,0,0-24.77-24.77v2.95Z"/><path class="cls-1" d="M357.72,305.52a23,23,0,0,1,15.1-6.72v-2.95a26,26,0,0,0-24.77,24.77H351A23,23,0,0,1,357.72,305.52Z"/><path class="cls-1" d="M165.51,432.41v-2.36h-2.35V407.66h-3.54V405.3a5.89,5.89,0,0,0-5.89-5.89h-2.36a5.89,5.89,0,0,0-5.89,5.89v11.78h-7.07v2.36h-20a5.9,5.9,0,0,0-5.89,5.89v2.36h-4.72V431a18.72,18.72,0,0,0-3.53,1.6V419.44h2.36v-7.07h-2.36v-5.89H94.8v5.89H92.44v7.07H94.8v24.75H93.62v9.43H94.8v16.5H92.44v2.36h73.07v-2.36h-2.35V432.41ZM94.8,414.73h2.36v-5.9h4.71v5.9h2.36v2.35h-2.36v17.14a19.09,19.09,0,0,0-4.71,5.6V417.08H94.8Zm7.07,49.5v5.89H97.16V458a18.87,18.87,0,0,0,5.55,6.23Zm10.61,5.89h-8.25v-4.9a18.84,18.84,0,0,0,8.25,2.49Zm17.68,0H114.84v-2.41A18.93,18.93,0,0,0,130.16,458Zm1.18-18.86h-2.82v2.36h.95a16.55,16.55,0,0,1-14.63,11.73v-2.28h-2.36v2.28a16.56,16.56,0,0,1-14.64-11.73h1v-2.36H96v-4.71h2.86v-2.36h-1A16.64,16.64,0,0,1,109.26,433l.86-.24v-2.71h7.07v2.71l.87.24a16.64,16.64,0,0,1,11.4,11.19h-.94v2.36h2.82Zm7.07-7.07v25.93h-5.9v-16.5h1.18v-9.43h-1.78a19,19,0,0,0-9.15-11.78h15.65Zm0-20v5.89H119.55v-2.36h-4.71v-2.36a3.54,3.54,0,0,1,3.53-3.53h20Zm15.32,46h-13V446.55h13Zm0-40.07v14.14h-13V426.51h13Zm0-5.89h-13v-4.72h13Zm0-7.08h-5.89V405.3a3.54,3.54,0,0,1,3.53-3.54h2.36a3.54,3.54,0,0,1,3.53,3.54v2.36h-3.53Zm7.07,53h-4.71V432.41h4.71Zm0-40.07h-4.71V410h4.71Z"/><path class="cls-3" d="M260.08,5.7a47.79,47.79,0,0,0-28.52,9.4,54.58,54.58,0,0,1,36.35,27.34c.74-.1,1.45-.17,2.17-.23l.36,0c.9-.06,1.79-.1,2.7-.1a39.79,39.79,0,0,1,8.29.88,39.51,39.51,0,0,1,20-13.41A47.83,47.83,0,0,0,260.08,5.7Z"/><path class="cls-3" d="M312.89,81.84a39.42,39.42,0,0,1-5.2,19.62h4.72a33.89,33.89,0,1,0,0-67.77c-.6,0-1.19,0-1.79.05l-.79.06-.89.08-1,.12-.35,0c-.53.08-.94.14-1.34.22a33.54,33.54,0,0,0-14.07,6.15,34,34,0,0,0-4.75,4.31A39.83,39.83,0,0,1,312.89,81.84Z"/><path class="cls-3" d="M304.52,28.81c-.32.06-.64.15-1,.22C303.88,29,304.2,28.87,304.52,28.81Z"/><path class="cls-4" d="M310.31,28.05c-.3,0-2.6.23-3,.28h0c-.94.12-1.87.28-2.79.47-.32.06-.64.15-1,.22-.71.16-1.42.32-2.12.52h0a39.51,39.51,0,0,0-20,13.41,39.76,39.76,0,0,1,6,1.77,34,34,0,0,1,4.75-4.31,33.54,33.54,0,0,1,14.07-6.15c.4-.08.81-.14,1.34-.22l.35,0,1-.12.89-.08.79-.06c.6,0,1.19-.05,1.79-.05a33.89,33.89,0,1,1,0,67.77h-4.72a40.15,40.15,0,0,1-3.93,5.71h8.65a39.59,39.59,0,1,0-2.1-79.12Z"/><path class="cls-5" d="M260.08,5.7a47.83,47.83,0,0,1,41.36,23.85c.69-.2,1.41-.36,2.12-.52.32-.07.64-.16,1-.22l.66-.16,2.1-.32h0l-1.44-2.51A53.55,53.55,0,0,0,224,14a52.06,52.06,0,0,1,7.61,1.1A47.79,47.79,0,0,1,260.08,5.7Z"/><path class="cls-5" d="M305.18,28.65l-.66.16c.92-.19,1.85-.35,2.79-.47h0Z"/><path class="cls-5" d="M301.44,29.55c.7-.2,1.41-.36,2.12-.52-.71.16-1.43.32-2.12.52Z"/><path class="cls-6" d="M287.39,44.73a39.84,39.84,0,0,0-14.25-2.65c-.91,0-1.8,0-2.7.1l-.36,0c-.72.06-1.43.13-2.17.23A54.58,54.58,0,0,0,231.56,15.1,52.06,52.06,0,0,0,224,14c-1.19-.08-2.39-.13-3.6-.13a54,54,0,0,0-36.46,14.27,53.66,53.66,0,0,1,7.29,1,48.26,48.26,0,0,1,27.59-9.7c.53,0,1-.07,1.58-.07a49.47,49.47,0,0,1,5.87.36,47.62,47.62,0,0,1,36.06,23.89A39.34,39.34,0,0,0,242,57.17a39.31,39.31,0,0,1,5.72,1.71A34.11,34.11,0,0,1,266.51,48.2l.36-.07c.95-.17,2-.31,3-.42l.3,0c1.05-.09,2-.14,2.95-.14a34.33,34.33,0,0,1,34.29,34.29,34.44,34.44,0,0,1-34.29,34.29h-5.43a39.76,39.76,0,0,1-3.88,5.47h9.31a39.76,39.76,0,0,0,14.25-76.87Z"/><path class="cls-7" d="M247.69,58.88a40.06,40.06,0,0,0-14.24-2.64c-.9,0-1.79,0-2.68.09l-.4,0c-.7.05-1.4.12-2.15.22a53.6,53.6,0,0,0-14-16.71c-.5-.4-1-.77-1.55-1.16-1.08-.8-2.19-1.55-3.33-2.27a54.46,54.46,0,0,0-18.17-7.34,53.66,53.66,0,0,0-7.29-1c-1.07-.06-2.14-.11-3.23-.11A54,54,0,0,0,129,66.82a34.47,34.47,0,1,0,0,68.93H233.45a39.87,39.87,0,0,0,34.26-19.62A40,40,0,0,0,273.21,96,39.82,39.82,0,0,0,247.69,58.88Zm19.57,42.58a33.46,33.46,0,0,1-1.42,5.7,34.44,34.44,0,0,1-32.39,23.13H129a29,29,0,0,1,0-58c.64,0,1.27,0,1.89.07l2.29.15.54-2.22a48.23,48.23,0,0,1,45-36.7c.64,0,1.28-.08,1.93-.08a49.92,49.92,0,0,1,5.21.29A48,48,0,0,1,203.22,39h0a47.35,47.35,0,0,1,8,5.31,48.74,48.74,0,0,1,11.35,13.44A39.4,39.4,0,0,0,202,71.61l-.35.46L206,75.42l.35-.46A34.22,34.22,0,0,1,226.9,62.34l.28-.05c.95-.18,2-.32,3-.42l.32,0c1.07-.09,2-.13,2.94-.13A34.33,34.33,0,0,1,267.74,96,33.9,33.9,0,0,1,267.26,101.46Z"/><rect class="cls-8" x="46.86" y="222.93" width="1.25" height="157.81"/><polygon class="cls-8" points="43.44 224.11 47.49 217.1 51.54 224.11 43.44 224.11"/><polygon class="cls-8" points="43.44 379.55 47.49 386.57 51.54 379.55 43.44 379.55"/><rect class="cls-8" x="130.99" y="222.93" width="1.25" height="157.81"/><polygon class="cls-8" points="127.57 224.11 131.62 217.1 135.67 224.11 127.57 224.11"/><polygon class="cls-8" points="127.57 379.55 131.62 386.57 135.67 379.55 127.57 379.55"/><rect class="cls-8" x="216.2" y="222.93" width="1.25" height="157.81"/><polygon class="cls-8" points="212.78 224.11 216.83 217.1 220.88 224.11 212.78 224.11"/><polygon class="cls-8" points="212.78 379.55 216.83 386.57 220.88 379.55 212.78 379.55"/><rect class="cls-8" x="373.51" y="361.52" width="1.25" height="35.22"/><polygon class="cls-8" points="370.09 362.71 374.14 355.69 378.19 362.71 370.09 362.71"/><polygon class="cls-8" points="370.09 395.55 374.14 402.57 378.19 395.55 370.09 395.55"/><rect class="cls-8" x="373.42" y="222.93" width="1.25" height="58.72"/><polygon class="cls-8" points="369.99 224.11 374.04 217.1 378.1 224.11 369.99 224.11"/><polygon class="cls-8" points="369.99 280.46 374.04 287.48 378.1 280.46 369.99 280.46"/><polygon class="cls-2" points="586.88 310.24 586.88 311.9 590.2 311.9 581.91 319.44 573.62 311.9 576.93 311.9 576.93 310.24 570.3 310.24 570.3 316.88 571.96 316.88 571.96 313.56 579.49 321.85 571.96 330.14 571.96 326.82 570.3 326.82 570.3 333.46 576.93 333.46 576.93 331.8 573.62 331.8 581.91 324.26 590.2 331.8 586.88 331.8 586.88 333.46 593.51 333.46 593.51 326.82 591.86 326.82 591.86 330.14 584.32 321.85 591.86 313.56 591.86 316.88 593.51 316.88 593.51 310.24 586.88 310.24"/><path class="cls-1" d="M607.9,323.08H605a23,23,0,0,1-21.81,21.82v3a26,26,0,0,0,24.76-24.77Z"/><path class="cls-1" d="M580.68,344.9a23.05,23.05,0,0,1-21.82-21.82h-3a26,26,0,0,0,24.77,24.77v-3Z"/><path class="cls-1" d="M583.14,298.8A23,23,0,0,1,605,320.62h2.95a26,26,0,0,0-24.76-24.77v2.95Z"/><path class="cls-1" d="M565.58,305.52a23,23,0,0,1,15.1-6.72v-2.95a26,26,0,0,0-24.77,24.77h3A23,23,0,0,1,565.58,305.52Z"/><rect class="cls-8" x="581.28" y="222.93" width="1.25" height="58.72"/><polygon class="cls-8" points="577.86 224.11 581.91 217.1 585.96 224.11 577.86 224.11"/><polygon class="cls-8" points="577.86 280.46 581.91 287.48 585.96 280.46 577.86 280.46"/><path class="cls-1" d="M520.41,459.56h-16a.8.8,0,0,1-.8-.81V422.42a.81.81,0,0,1,.8-.81h16a.82.82,0,0,1,.81.81v36.33A.81.81,0,0,1,520.41,459.56ZM505.24,458H519.6V423.23H505.24Z"/><path class="cls-1" d="M515.54,428h-6.39a.81.81,0,1,1,0-1.61h6.39a.81.81,0,0,1,0,1.61Z"/><path class="cls-1" d="M515.54,432.81h-6.39a.81.81,0,1,1,0-1.61h6.39a.81.81,0,0,1,0,1.61Z"/><path class="cls-1" d="M510.74,437.71a.77.77,0,0,1-.57-.25.79.79,0,0,1-.23-.56.8.8,0,0,1,1.37-.57.84.84,0,0,1,.24.57.8.8,0,0,1-.24.56A.77.77,0,0,1,510.74,437.71Z"/><path class="cls-1" d="M513.94,437.71a.85.85,0,0,1-.58-.25.79.79,0,0,1-.23-.56.81.81,0,0,1,.23-.57.83.83,0,0,1,1.15,0,.81.81,0,0,1,.23.56.79.79,0,0,1-.23.56A.81.81,0,0,1,513.94,437.71Z"/><path class="cls-1" d="M541.41,459.56h-16a.8.8,0,0,1-.8-.81V422.42a.81.81,0,0,1,.8-.81h16a.82.82,0,0,1,.81.81v36.33A.81.81,0,0,1,541.41,459.56ZM526.24,458H540.6V423.23H526.24Z"/><path class="cls-1" d="M536.54,428h-6.39a.81.81,0,1,1,0-1.61h6.39a.81.81,0,0,1,0,1.61Z"/><path class="cls-1" d="M536.54,432.81h-6.39a.81.81,0,1,1,0-1.61h6.39a.81.81,0,0,1,0,1.61Z"/><path class="cls-1" d="M531.74,437.71a.77.77,0,0,1-.57-.25.79.79,0,0,1-.23-.56.8.8,0,0,1,1.37-.57.84.84,0,0,1,.24.57.8.8,0,0,1-.24.56A.77.77,0,0,1,531.74,437.71Z"/><path class="cls-1" d="M534.94,437.71a.85.85,0,0,1-.58-.25.79.79,0,0,1-.23-.56.81.81,0,0,1,.23-.57.83.83,0,0,1,1.15,0,.81.81,0,0,1,.23.56.79.79,0,0,1-.23.56A.81.81,0,0,1,534.94,437.71Z"/><path class="cls-1" d="M580.52,459.56h-16a.8.8,0,0,1-.8-.81V422.42a.81.81,0,0,1,.8-.81h16a.82.82,0,0,1,.81.81v36.33A.81.81,0,0,1,580.52,459.56ZM565.35,458h14.36V423.23H565.35Z"/><path class="cls-1" d="M575.65,428h-6.39a.81.81,0,1,1,0-1.61h6.39a.81.81,0,0,1,0,1.61Z"/><path class="cls-1" d="M575.65,432.81h-6.39a.81.81,0,1,1,0-1.61h6.39a.81.81,0,0,1,0,1.61Z"/><path class="cls-1" d="M570.85,437.71a.77.77,0,0,1-.57-.25.79.79,0,0,1-.23-.56.8.8,0,0,1,1.37-.57.84.84,0,0,1,.24.57.8.8,0,0,1-.24.56A.77.77,0,0,1,570.85,437.71Z"/><path class="cls-1" d="M574.05,437.71a.83.83,0,0,1-.58-.25.79.79,0,0,1-.23-.56.81.81,0,0,1,.23-.57.83.83,0,0,1,1.15,0,.81.81,0,0,1,.23.56.79.79,0,0,1-.23.56A.81.81,0,0,1,574.05,437.71Z"/><path class="cls-1" d="M601.52,459.56h-16a.8.8,0,0,1-.8-.81V422.42a.81.81,0,0,1,.8-.81h16a.82.82,0,0,1,.81.81v36.33A.81.81,0,0,1,601.52,459.56ZM586.35,458h14.36V423.23H586.35Z"/><path class="cls-1" d="M596.65,428h-6.39a.81.81,0,1,1,0-1.61h6.39a.81.81,0,0,1,0,1.61Z"/><path class="cls-1" d="M596.65,432.81h-6.39a.81.81,0,1,1,0-1.61h6.39a.81.81,0,0,1,0,1.61Z"/><path class="cls-1" d="M591.85,437.71a.77.77,0,0,1-.57-.25.79.79,0,0,1-.23-.56.8.8,0,0,1,1.37-.57.84.84,0,0,1,.24.57.8.8,0,0,1-.24.56A.77.77,0,0,1,591.85,437.71Z"/><path class="cls-1" d="M595.05,437.71a.85.85,0,0,1-.58-.25.79.79,0,0,1-.23-.56.81.81,0,0,1,.23-.57.83.83,0,0,1,1.15,0,.81.81,0,0,1,.23.56.79.79,0,0,1-.23.56A.81.81,0,0,1,595.05,437.71Z"/><path class="cls-1" d="M640.63,459.56h-16a.8.8,0,0,1-.8-.81V422.42a.81.81,0,0,1,.8-.81h16a.82.82,0,0,1,.81.81v36.33A.81.81,0,0,1,640.63,459.56ZM625.46,458h14.36V423.23H625.46Z"/><path class="cls-1" d="M635.76,428h-6.39a.81.81,0,1,1,0-1.61h6.39a.81.81,0,0,1,0,1.61Z"/><path class="cls-1" d="M635.76,432.81h-6.39a.81.81,0,1,1,0-1.61h6.39a.81.81,0,0,1,0,1.61Z"/><path class="cls-1" d="M631,437.71a.77.77,0,0,1-.57-.25.79.79,0,0,1-.23-.56.8.8,0,0,1,1.37-.57.84.84,0,0,1,.24.57.8.8,0,0,1-.24.56A.77.77,0,0,1,631,437.71Z"/><path class="cls-1" d="M634.16,437.71a.83.83,0,0,1-.58-.25.79.79,0,0,1-.23-.56.81.81,0,0,1,.23-.57.83.83,0,0,1,1.15,0,.81.81,0,0,1,.23.56.79.79,0,0,1-.23.56A.81.81,0,0,1,634.16,437.71Z"/><path class="cls-1" d="M661.63,459.56h-16a.8.8,0,0,1-.8-.81V422.42a.81.81,0,0,1,.8-.81h16a.82.82,0,0,1,.81.81v36.33A.81.81,0,0,1,661.63,459.56ZM646.46,458h14.36V423.23H646.46Z"/><path class="cls-1" d="M656.76,428h-6.39a.81.81,0,1,1,0-1.61h6.39a.81.81,0,0,1,0,1.61Z"/><path class="cls-1" d="M656.76,432.81h-6.39a.81.81,0,1,1,0-1.61h6.39a.81.81,0,0,1,0,1.61Z"/><path class="cls-1" d="M652,437.71a.77.77,0,0,1-.57-.25.79.79,0,0,1-.23-.56.8.8,0,0,1,1.37-.57.84.84,0,0,1,.24.57.8.8,0,0,1-.24.56A.77.77,0,0,1,652,437.71Z"/><path class="cls-1" d="M655.16,437.71a.85.85,0,0,1-.58-.25.79.79,0,0,1-.23-.56.81.81,0,0,1,.23-.57.83.83,0,0,1,1.15,0,.81.81,0,0,1,.23.56.79.79,0,0,1-.23.56A.81.81,0,0,1,655.16,437.71Z"/><path class="cls-1" d="M315.27,455.09V445h1.56v4.89l10.44-3v-5.48h-4.36a7.64,7.64,0,0,1,0-15.28H345.2a.77.77,0,0,1,.72.48.77.77,0,0,1-.17.85l-5.07,5.08,1.35.5a.77.77,0,0,1,.52.73v5.14a.78.78,0,0,1-.78.78h-4.36v.94a.78.78,0,0,1-.79.78h-7.78v6.07a.8.8,0,0,1-.57.76l-11.44,3.26v3.63ZM320.88,428a6.06,6.06,0,0,0,2,11.78h12.93v-4.36a.76.76,0,0,1,.23-.55l7.24-7.24H328.84v.57h-1.57v-.57h-3.58v2.29h-1.57v-2.36Zm16.53,7.75v2.32H341v-3.58h-2.32Z"/><path class="cls-1" d="M362.29,455.09V445h1.56v4.89l10.44-3v-5.48h-4.36a7.64,7.64,0,0,1,0-15.28h22.29a.77.77,0,0,1,.72.48.77.77,0,0,1-.17.85l-5.07,5.08,1.36.5a.78.78,0,0,1,.51.73v5.14a.78.78,0,0,1-.78.78h-4.36v.94a.78.78,0,0,1-.78.78h-7.79v6.07a.8.8,0,0,1-.57.76l-11.44,3.26v3.63ZM367.9,428a6.06,6.06,0,0,0,2,11.78h12.93v-4.36a.76.76,0,0,1,.23-.55l7.24-7.24H375.86v.57h-1.57v-.57h-3.58v2.29h-1.56v-2.36Zm16.53,7.75v2.32H388v-3.58h-2.33Z"/><path class="cls-1" d="M409.31,455.09V445h1.57v4.89l10.43-3v-5.48H417a7.64,7.64,0,0,1,0-15.28h22.29a.77.77,0,0,1,.72.48.75.75,0,0,1-.17.85l-5.07,5.08,1.36.5a.78.78,0,0,1,.51.73v5.14a.78.78,0,0,1-.78.78h-4.36v.94a.78.78,0,0,1-.78.78h-7.79v6.07a.8.8,0,0,1-.57.76l-11.43,3.26v3.63ZM414.92,428a6.06,6.06,0,0,0,2,11.78h12.93v-4.36a.76.76,0,0,1,.23-.55l7.24-7.24H422.88v.57h-1.57v-.57h-3.58v2.29h-1.56v-2.36Zm16.53,7.75v2.32H435v-3.58H432.7Z"/><path class="cls-1" d="M503.93,68.42c0-8-13.79-11.63-27.44-11.63s-27.42,3.6-27.42,11.63v57.09a3.22,3.22,0,0,0,.18,1.15c1.74,7.45,15.79,10.09,27.24,10.09s25.47-2.64,27.21-9.93a3.87,3.87,0,0,0,.23-1.3ZM476.5,59.64c11.77,0,24.25,3,24.43,8.63-.57,1.68-9.07,7-24.43,7s-23.93-5.34-24.42-7C452.22,62.67,464.73,59.64,476.5,59.64ZM501,125.51a1.49,1.49,0,0,1-.1.51c-1.1,4.56-11.34,7.88-24.38,7.88s-23.27-3.32-24.42-8a.86.86,0,0,1-.07-.36V110.12c4.26,3.13,12.89,6,24.35,6s20.27-3,24.6-6.16Zm0-19.62c-.37,1.56-8.72,7.42-24.6,7.42s-24-5.59-24.33-7.28V90.62c4.26,3.13,12.89,6,24.36,6s20.26-3,24.6-6.16Zm0-19.49c-.37,1.56-8.72,7.42-24.6,7.42s-24-5.64-24.29-7.33a.2.2,0,0,1,0-.11V72.23c4.36,3,13.08,5.89,24.47,5.89s20.16-2.85,24.48-5.89Z"/><path class="cls-1" d="M249.09,453.42v-7.27a3,3,0,0,0-3-3h-2a3,3,0,0,0-3,3h0v7.12H238.2a3,3,0,0,0-2.25-1h-3V448a3,3,0,0,0,2-2.85V433H239v-6.07h-4.05v-4.05a3,3,0,0,0-3-3h-1v-7.12a3.06,3.06,0,0,0-3-3H213.46a3,3,0,0,0-2.85,2H195.24a7.11,7.11,0,0,0-7.11,7.12v27.33h-2v6.07h-1a3.05,3.05,0,0,0-3,3v14.17a3.05,3.05,0,0,0,3,3h12.15a3,3,0,0,0,3-3V455.26a3.05,3.05,0,0,0-3-3h-1v-6.07h-2V418.82a1,1,0,0,1,1-1h15.19v2h-1a3,3,0,0,0-3,3v4.05h-4V433h4v12.15a3,3,0,0,0,2,2.85v4.23h-3a3,3,0,0,0-3,3h0v17.21H239V463.4h9.11a3,3,0,0,0,3-3h0v-4.08A3,3,0,0,0,249.09,453.42Zm-14.17-24.48h2v2h-2Zm-28.54,2h-2v-2h2Zm6-18.24a1,1,0,0,1,1-1h14.42a1,1,0,0,1,1,1v1H212.42Zm0,3h16.4v4.06h-16.4Zm-24.3,32.42h6.11v4.05h-6.08Zm9.12,6.07a1,1,0,0,1,1,1h0v14.17a1,1,0,0,1-1,1H185.11a1,1,0,0,1-1-1h0v-14.2a1,1,0,0,1,1-1h0Zm-2-38.47a3,3,0,0,0-3,3.05v27.33h-2V418.82a5.08,5.08,0,0,1,5.06-5.06h15.18v2Zm13.16,7.12a1,1,0,0,1,1-1h22.48a1,1,0,0,1,1,1v22.27a1,1,0,0,1-1,1H209.41a1,1,0,0,1-1-1h0Zm22.47,25.3v4h-2v-4Zm-4,0v4H214.47v-4Zm-14.38,0v4h-2v-4Zm24.51,22.27H204.35V460.37h32.58Zm0-12.14H204.35v-3a1,1,0,0,1,1-1h30.57a1,1,0,0,1,1,1h0ZM243,446.2a1,1,0,0,1,1-1h2a1,1,0,0,1,1,1h0v1h-4Zm0,3h4v4h-4Zm6.07,11.13a1,1,0,0,1-1,1H239v-6.07h9.11a1,1,0,0,1,1,1h0Z"/><polygon class="cls-2" points="217.02 426.51 217.02 425.23 211.93 425.23 211.93 430.32 213.2 430.32 213.2 427.78 218.97 434.13 213.2 440.48 213.2 437.94 211.93 437.94 211.93 443.02 217.02 443.02 217.02 441.76 214.47 441.76 220.83 435.98 227.17 441.76 224.64 441.76 224.64 443.02 229.72 443.02 229.72 437.94 228.45 437.94 228.45 440.48 222.67 434.13 228.45 427.78 228.45 430.32 229.72 430.32 229.72 425.23 224.64 425.23 224.64 426.51 227.17 426.51 220.83 432.28 214.47 426.51 217.02 426.51"/><path class="cls-1" d="M548.83,78.46h-8a1.61,1.61,0,0,0,0,3.21h8a1.61,1.61,0,1,0,0-3.21Z"/><path class="cls-1" d="M563.29,78.46h-8a1.61,1.61,0,1,0,0,3.21h8a1.61,1.61,0,1,0,0-3.21Z"/><path class="cls-1" d="M616.65,71.51H537.94a4.82,4.82,0,0,0-4.81,4.82v54.61a4.82,4.82,0,0,0,4.81,4.81h78.71a4.82,4.82,0,0,0,4.82-4.81V76.33A4.82,4.82,0,0,0,616.65,71.51Zm-80.31,4.82a1.61,1.61,0,0,1,1.6-1.61h78.71a1.61,1.61,0,0,1,1.6,1.61V86H536.34Zm81.91,32.35v22.26a1.6,1.6,0,0,1-1.6,1.6H537.94a1.6,1.6,0,0,1-1.6-1.6V89.17h81.91v19.51Z"/><path class="cls-9" d="M592,106.9h-3.23c-.11-.29-.23-.57-.35-.85l2.28-2.29a1.35,1.35,0,0,0,0-1.91l-4.22-4.22a1.36,1.36,0,0,0-1.92,0l-2.28,2.28-.85-.35V96.33A1.36,1.36,0,0,0,580,95h-6a1.36,1.36,0,0,0-1.36,1.36v3.23l-.86.35-2.28-2.28a1.36,1.36,0,0,0-1.92,0l-4.21,4.22a1.35,1.35,0,0,0,0,1.91l2.28,2.29c-.13.28-.24.56-.35.85h-3.23a1.36,1.36,0,0,0-1.36,1.36v6a1.36,1.36,0,0,0,1.36,1.36h3.23c.11.29.22.57.35.85l-2.28,2.29a1.35,1.35,0,0,0,0,1.91l4.21,4.22a1.36,1.36,0,0,0,1.92,0l2.28-2.28c.28.13.57.24.86.35v3.23a1.36,1.36,0,0,0,1.36,1.36h6a1.36,1.36,0,0,0,1.36-1.36v-3.23c.29-.11.57-.22.85-.35l2.28,2.28a1.36,1.36,0,0,0,1.92,0l4.22-4.22a1.35,1.35,0,0,0,0-1.91l-2.28-2.29c.12-.28.24-.56.35-.85H592a1.35,1.35,0,0,0,1.35-1.36v-6A1.35,1.35,0,0,0,592,106.9Zm-14.91,10.31a6,6,0,1,1,6-6A6,6,0,0,1,577.06,117.21Z"/><polygon class="cls-2" points="110.27 440.6 110.27 439.33 105.19 439.33 105.19 444.41 106.45 444.41 106.45 441.87 112.23 448.22 106.45 454.58 106.45 452.03 105.19 452.03 105.19 457.11 110.27 457.11 110.27 455.85 107.73 455.85 114.08 450.07 120.43 455.85 117.89 455.85 117.89 457.11 122.98 457.11 122.98 452.03 121.7 452.03 121.7 454.58 115.93 448.22 121.7 441.87 121.7 444.41 122.98 444.41 122.98 439.33 117.89 439.33 117.89 440.6 120.43 440.6 114.08 446.38 107.73 440.6 110.27 440.6"/><path class="cls-10" d="M76.91,502.78H71.66v3.94H77.8v1.77H69.43V495.7h8.31v1.79H71.66V501h5.25Z"/><path class="cls-10" d="M78.84,503.67a5.65,5.65,0,0,1,1-3.53,3.26,3.26,0,0,1,2.73-1.33A3.1,3.1,0,0,1,85,499.86V495h2.14v13.5H85.23l-.1-1a3.16,3.16,0,0,1-2.56,1.16,3.26,3.26,0,0,1-2.7-1.34A5.87,5.87,0,0,1,78.84,503.67Zm2.13.18a4,4,0,0,0,.56,2.27,1.81,1.81,0,0,0,1.59.81A2,2,0,0,0,85,505.76V501.7a2,2,0,0,0-1.9-1.14,1.83,1.83,0,0,0-1.6.82A4.45,4.45,0,0,0,81,503.85Z"/><path class="cls-10" d="M89,503.67a5.58,5.58,0,0,1,1-3.54,3.36,3.36,0,0,1,2.77-1.32,3.17,3.17,0,0,1,2.56,1.13l.09-1h1.93v9.22a3.83,3.83,0,0,1-1.17,3,4.42,4.42,0,0,1-3.14,1.08,5,5,0,0,1-2-.44,3.7,3.7,0,0,1-1.52-1.13l1-1.29A3.07,3.07,0,0,0,93,510.55a2.37,2.37,0,0,0,1.68-.57,2.22,2.22,0,0,0,.61-1.7v-.64a3.12,3.12,0,0,1-2.46,1,3.33,3.33,0,0,1-2.73-1.33A5.71,5.71,0,0,1,89,503.67Zm2.13.18a3.84,3.84,0,0,0,.58,2.26,1.88,1.88,0,0,0,1.63.82,2,2,0,0,0,1.91-1.11v-4.18a2,2,0,0,0-1.9-1.08,1.9,1.9,0,0,0-1.64.83A4.3,4.3,0,0,0,91.15,503.85Z"/><path class="cls-10" d="M103.79,508.67a4.41,4.41,0,0,1-3.29-1.28,4.64,4.64,0,0,1-1.26-3.4v-.27a5.61,5.61,0,0,1,.55-2.54,4.07,4.07,0,0,1,3.75-2.37,3.7,3.7,0,0,1,3,1.24,5.2,5.2,0,0,1,1.06,3.51v.86h-6.21a2.8,2.8,0,0,0,.79,1.86,2.32,2.32,0,0,0,1.73.69,2.89,2.89,0,0,0,2.39-1.19l1.15,1.1a3.82,3.82,0,0,1-1.52,1.32A4.84,4.84,0,0,1,103.79,508.67Zm-.26-8.15a1.81,1.81,0,0,0-1.42.62,3.19,3.19,0,0,0-.69,1.71h4.07v-.16a2.54,2.54,0,0,0-.57-1.62A1.81,1.81,0,0,0,103.53,500.52Z"/><path class="cls-10" d="M124.1,508.49h-2.22l-5.71-9.07v9.07H114V495.7h2.22l5.72,9.11V495.7h2.21Z"/><path class="cls-10" d="M126.12,503.65a5.75,5.75,0,0,1,.55-2.52,4.07,4.07,0,0,1,1.56-1.72,4.41,4.41,0,0,1,2.3-.6,4.14,4.14,0,0,1,3.13,1.24,4.83,4.83,0,0,1,1.29,3.29v.5a5.67,5.67,0,0,1-.54,2.51,3.94,3.94,0,0,1-1.54,1.71,4.4,4.4,0,0,1-2.33.61,4.13,4.13,0,0,1-3.22-1.34,5.1,5.1,0,0,1-1.21-3.57Zm2.14.19a3.82,3.82,0,0,0,.6,2.29,2,2,0,0,0,1.69.84,2,2,0,0,0,1.68-.85,4.22,4.22,0,0,0,.61-2.47,3.78,3.78,0,0,0-.62-2.28,2.09,2.09,0,0,0-3.35,0A4.18,4.18,0,0,0,128.26,503.84Z"/><path class="cls-10" d="M136.37,503.67a5.65,5.65,0,0,1,1-3.53,3.26,3.26,0,0,1,2.73-1.33,3.13,3.13,0,0,1,2.45,1.05V495h2.13v13.5h-1.93l-.11-1a3.16,3.16,0,0,1-2.56,1.16,3.26,3.26,0,0,1-2.7-1.34A5.87,5.87,0,0,1,136.37,503.67Zm2.13.18a4,4,0,0,0,.56,2.27,1.81,1.81,0,0,0,1.59.81,2,2,0,0,0,1.92-1.17V501.7a2,2,0,0,0-1.9-1.14,1.81,1.81,0,0,0-1.6.82A4.36,4.36,0,0,0,138.5,503.85Z"/><path class="cls-10" d="M151.12,508.67a4.41,4.41,0,0,1-3.29-1.28,4.6,4.6,0,0,1-1.27-3.4v-.27a5.75,5.75,0,0,1,.55-2.54,4.19,4.19,0,0,1,1.55-1.75,4.12,4.12,0,0,1,2.21-.62,3.7,3.7,0,0,1,3,1.24,5.2,5.2,0,0,1,1.06,3.51v.86h-6.21a2.84,2.84,0,0,0,.78,1.86,2.36,2.36,0,0,0,1.74.69,2.89,2.89,0,0,0,2.39-1.19l1.15,1.1a3.82,3.82,0,0,1-1.52,1.32A4.84,4.84,0,0,1,151.12,508.67Zm-.26-8.15a1.81,1.81,0,0,0-1.42.62,3.19,3.19,0,0,0-.69,1.71h4.07v-.16a2.59,2.59,0,0,0-.57-1.62A1.81,1.81,0,0,0,150.86,500.52Z"/><path class="cls-10" d="M160.67,503.65a5.75,5.75,0,0,1,.55-2.52,4.07,4.07,0,0,1,1.56-1.72,4.41,4.41,0,0,1,2.3-.6,4.14,4.14,0,0,1,3.13,1.24,4.83,4.83,0,0,1,1.29,3.29v.5a5.67,5.67,0,0,1-.54,2.51,3.94,3.94,0,0,1-1.54,1.71,4.4,4.4,0,0,1-2.33.61,4.13,4.13,0,0,1-3.22-1.34,5.1,5.1,0,0,1-1.21-3.57Zm2.14.19a3.82,3.82,0,0,0,.6,2.29,2,2,0,0,0,1.69.84,2,2,0,0,0,1.68-.85,4.22,4.22,0,0,0,.61-2.47,3.78,3.78,0,0,0-.62-2.28,2.09,2.09,0,0,0-3.35,0A4.18,4.18,0,0,0,162.81,503.84Z"/><path class="cls-10" d="M173.3,499l.06,1.1a3.43,3.43,0,0,1,2.77-1.27q3,0,3,3.4v6.28H177v-6.16a2,2,0,0,0-.39-1.34,1.65,1.65,0,0,0-1.28-.43,2.07,2.07,0,0,0-1.93,1.17v6.76h-2.13V499Z"/><path class="cls-10" d="M57.49,525.17H55v4.92H52.79V517.3h4.5a5.23,5.23,0,0,1,3.41,1,3.5,3.5,0,0,1,1.21,2.88,3.64,3.64,0,0,1-.62,2.15,4,4,0,0,1-1.73,1.33L62.44,530v.11H60.05ZM55,523.38h2.28a2.54,2.54,0,0,0,1.76-.57,2,2,0,0,0,.63-1.55,2.11,2.11,0,0,0-.58-1.59,2.49,2.49,0,0,0-1.74-.58H55Z"/><path class="cls-10" d="M68,530.27A4.43,4.43,0,0,1,64.71,529a4.64,4.64,0,0,1-1.26-3.4v-.27a5.61,5.61,0,0,1,.55-2.54A4.17,4.17,0,0,1,65.54,521a4.12,4.12,0,0,1,2.21-.62,3.7,3.7,0,0,1,3,1.24,5.2,5.2,0,0,1,1.06,3.51V526H65.6a2.85,2.85,0,0,0,.79,1.86,2.34,2.34,0,0,0,1.73.69,2.89,2.89,0,0,0,2.39-1.19l1.15,1.1a3.82,3.82,0,0,1-1.52,1.32A4.84,4.84,0,0,1,68,530.27Zm-.26-8.15a1.83,1.83,0,0,0-1.42.62,3.19,3.19,0,0,0-.69,1.71H69.7v-.16a2.54,2.54,0,0,0-.57-1.62A1.79,1.79,0,0,0,67.74,522.12Z"/><path class="cls-10" d="M75.48,520.59l.06,1a3.42,3.42,0,0,1,2.74-1.17,2.64,2.64,0,0,1,2.61,1.46,3.39,3.39,0,0,1,2.92-1.46,3,3,0,0,1,2.34.87,3.83,3.83,0,0,1,.79,2.57v6.24H84.8v-6.18a1.9,1.9,0,0,0-.39-1.33,1.75,1.75,0,0,0-1.31-.42,1.78,1.78,0,0,0-1.19.39,2,2,0,0,0-.65,1v6.52H79.13v-6.25a1.52,1.52,0,0,0-1.71-1.68,1.9,1.9,0,0,0-1.82,1v6.89H73.47v-9.5Z"/><path class="cls-10" d="M88.73,525.25a5.62,5.62,0,0,1,.56-2.52A4.05,4.05,0,0,1,90.84,521a4.41,4.41,0,0,1,2.3-.6,4.14,4.14,0,0,1,3.13,1.24,4.89,4.89,0,0,1,1.3,3.29v.5A5.67,5.67,0,0,1,97,528a3.94,3.94,0,0,1-1.54,1.71,4.38,4.38,0,0,1-2.33.61,4.14,4.14,0,0,1-3.22-1.34,5.1,5.1,0,0,1-1.21-3.57Zm2.14.19a3.82,3.82,0,0,0,.6,2.29,2,2,0,0,0,1.69.84,2,2,0,0,0,1.68-.85,4.15,4.15,0,0,0,.61-2.47,3.78,3.78,0,0,0-.62-2.28,2.09,2.09,0,0,0-3.35,0A4.2,4.2,0,0,0,90.87,525.44Z"/><path class="cls-10" d="M102.06,518.27v2.32h1.68v1.58h-1.68v5.31a1.17,1.17,0,0,0,.21.78,1,1,0,0,0,.77.24,3.82,3.82,0,0,0,.75-.08v1.65a5.51,5.51,0,0,1-1.41.2c-1.64,0-2.46-.9-2.46-2.72v-5.38H98.36v-1.58h1.56v-2.32Z"/><path class="cls-10" d="M109.55,530.27a4.43,4.43,0,0,1-3.29-1.28,4.64,4.64,0,0,1-1.26-3.4v-.27a5.61,5.61,0,0,1,.55-2.54,4.24,4.24,0,0,1,1.54-1.75,4.13,4.13,0,0,1,2.22-.62,3.73,3.73,0,0,1,3,1.24,5.26,5.26,0,0,1,1.06,3.51V526h-6.22a2.9,2.9,0,0,0,.79,1.86,2.36,2.36,0,0,0,1.74.69,2.9,2.9,0,0,0,2.39-1.19l1.15,1.1a3.78,3.78,0,0,1-1.53,1.32A4.81,4.81,0,0,1,109.55,530.27Zm-.25-8.15a1.8,1.8,0,0,0-1.42.62,3.19,3.19,0,0,0-.69,1.71h4.07v-.16a2.65,2.65,0,0,0-.57-1.62A1.82,1.82,0,0,0,109.3,522.12Z"/><path class="cls-10" d="M122.6,517.3l3.69,9.81L130,517.3h2.87v12.79h-2.21v-4.21l.22-5.65-3.78,9.86h-1.59l-3.77-9.85.22,5.64v4.21h-2.22V517.3Z"/><path class="cls-10" d="M141,530.09a3,3,0,0,1-.25-.88,3.59,3.59,0,0,1-4.83.24,2.59,2.59,0,0,1-.91-2,2.7,2.7,0,0,1,1.13-2.33,5.48,5.48,0,0,1,3.23-.81h1.31v-.63a1.68,1.68,0,0,0-.41-1.18A1.64,1.64,0,0,0,139,522a1.89,1.89,0,0,0-1.19.36,1.13,1.13,0,0,0-.47.93h-2.14a2.44,2.44,0,0,1,.52-1.47,3.46,3.46,0,0,1,1.41-1.06,4.94,4.94,0,0,1,2-.39,4,4,0,0,1,2.67.84,3,3,0,0,1,1,2.36v4.29a4.89,4.89,0,0,0,.36,2.05v.14Zm-2.35-1.53a2.48,2.48,0,0,0,1.19-.31,2.1,2.1,0,0,0,.84-.83v-1.79h-1.15a3.16,3.16,0,0,0-1.78.41,1.35,1.35,0,0,0-.6,1.17,1.22,1.22,0,0,0,.41,1A1.53,1.53,0,0,0,138.6,528.56Z"/><path class="cls-10" d="M148.91,528.57a2,2,0,0,0,1.33-.47,1.57,1.57,0,0,0,.56-1.15h2a3.1,3.1,0,0,1-.55,1.66,3.63,3.63,0,0,1-1.41,1.21,4.16,4.16,0,0,1-1.91.45,4.07,4.07,0,0,1-3.17-1.29,5.12,5.12,0,0,1-1.17-3.57v-.22a5.06,5.06,0,0,1,1.16-3.48,4,4,0,0,1,3.17-1.3,3.89,3.89,0,0,1,2.76,1,3.52,3.52,0,0,1,1.12,2.6h-2a1.94,1.94,0,0,0-.56-1.35,1.8,1.8,0,0,0-1.33-.53,1.89,1.89,0,0,0-1.6.75,4,4,0,0,0-.57,2.29v.34a3.93,3.93,0,0,0,.56,2.31A1.89,1.89,0,0,0,148.91,528.57Z"/><path class="cls-10" d="M156.53,521.62a3.34,3.34,0,0,1,2.65-1.21q3,0,3.08,3.47v6.21h-2.13V524a1.88,1.88,0,0,0-.43-1.39,1.71,1.71,0,0,0-1.25-.41,2.06,2.06,0,0,0-1.92,1.14v6.79H154.4v-13.5h2.13Z"/><path class="cls-10" d="M164.42,518.12a1.12,1.12,0,0,1,.32-.82,1.15,1.15,0,0,1,.89-.33,1.18,1.18,0,0,1,.89.33,1.08,1.08,0,0,1,.32.82,1.06,1.06,0,0,1-.32.8,1.21,1.21,0,0,1-.89.32,1.18,1.18,0,0,1-.89-.32A1.09,1.09,0,0,1,164.42,518.12Zm2.27,12h-2.13v-9.5h2.13Z"/><path class="cls-10" d="M171,520.59l.06,1.09a3.42,3.42,0,0,1,2.77-1.27q3,0,3,3.4v6.28h-2.13v-6.16a2,2,0,0,0-.4-1.34,1.62,1.62,0,0,0-1.27-.43,2.05,2.05,0,0,0-1.93,1.17v6.76H169v-9.5Z"/><path class="cls-10" d="M183.21,530.27a4.43,4.43,0,0,1-3.29-1.28,4.64,4.64,0,0,1-1.26-3.4v-.27a5.61,5.61,0,0,1,.55-2.54,4.24,4.24,0,0,1,1.54-1.75,4.15,4.15,0,0,1,2.22-.62,3.73,3.73,0,0,1,3,1.24,5.2,5.2,0,0,1,1.06,3.51V526h-6.21a2.84,2.84,0,0,0,.78,1.86,2.36,2.36,0,0,0,1.74.69,2.9,2.9,0,0,0,2.39-1.19l1.15,1.1a3.78,3.78,0,0,1-1.53,1.32A4.78,4.78,0,0,1,183.21,530.27Zm-.25-8.15a1.8,1.8,0,0,0-1.42.62,3.19,3.19,0,0,0-.69,1.71h4.07v-.16a2.65,2.65,0,0,0-.57-1.62A1.82,1.82,0,0,0,183,522.12Z"/><path class="cls-10" d="M194,527.51a1,1,0,0,0-.47-.87,5.32,5.32,0,0,0-1.56-.53,7.5,7.5,0,0,1-1.82-.58,2.41,2.41,0,0,1-1.6-2.24,2.52,2.52,0,0,1,1-2,4.07,4.07,0,0,1,2.64-.83,4.29,4.29,0,0,1,2.76.84,2.7,2.7,0,0,1,1.05,2.19h-2.14a1.29,1.29,0,0,0-.46-1,1.74,1.74,0,0,0-1.21-.41,2,2,0,0,0-1.15.32,1,1,0,0,0-.44.87.88.88,0,0,0,.41.77,6.05,6.05,0,0,0,1.67.55,7.59,7.59,0,0,1,2,.66,2.77,2.77,0,0,1,1.06.92,2.33,2.33,0,0,1,.35,1.3,2.5,2.5,0,0,1-1.07,2.08,4.51,4.51,0,0,1-2.78.79,5,5,0,0,1-2.09-.42,3.48,3.48,0,0,1-1.42-1.16,2.73,2.73,0,0,1-.51-1.59h2.08a1.44,1.44,0,0,0,.57,1.16,2.65,2.65,0,0,0,2.68.09A1,1,0,0,0,194,527.51Z"/><path class="cls-10" d="M287.52,502.78h-5.26v3.94h6.15v1.77H280V495.7h8.31v1.79h-6.09V501h5.26Z"/><path class="cls-10" d="M289.45,503.67a5.71,5.71,0,0,1,1-3.53,3.28,3.28,0,0,1,2.74-1.33,3.1,3.1,0,0,1,2.44,1.05V495h2.14v13.5h-1.94l-.1-1a3.16,3.16,0,0,1-2.56,1.16,3.26,3.26,0,0,1-2.7-1.34A5.87,5.87,0,0,1,289.45,503.67Zm2.13.18a4,4,0,0,0,.56,2.27,1.81,1.81,0,0,0,1.59.81,2,2,0,0,0,1.91-1.17V501.7a2,2,0,0,0-1.9-1.14,1.83,1.83,0,0,0-1.6.82A4.45,4.45,0,0,0,291.58,503.85Z"/><path class="cls-10" d="M299.63,503.67a5.58,5.58,0,0,1,1-3.54,3.36,3.36,0,0,1,2.77-1.32,3.17,3.17,0,0,1,2.56,1.13l.09-1H308v9.22a3.83,3.83,0,0,1-1.17,3,4.42,4.42,0,0,1-3.14,1.08,5,5,0,0,1-2-.44,3.7,3.7,0,0,1-1.52-1.13l1-1.29a3.07,3.07,0,0,0,2.43,1.17,2.37,2.37,0,0,0,1.68-.57,2.22,2.22,0,0,0,.61-1.7v-.64a3.12,3.12,0,0,1-2.46,1,3.33,3.33,0,0,1-2.73-1.33A5.71,5.71,0,0,1,299.63,503.67Zm2.13.18a3.84,3.84,0,0,0,.58,2.26,1.87,1.87,0,0,0,1.62.82,2.06,2.06,0,0,0,1.92-1.11v-4.18a2,2,0,0,0-1.9-1.08,1.9,1.9,0,0,0-1.64.83A4.3,4.3,0,0,0,301.76,503.85Z"/><path class="cls-10" d="M314.4,508.67a4.41,4.41,0,0,1-3.29-1.28,4.6,4.6,0,0,1-1.27-3.4v-.27a5.75,5.75,0,0,1,.55-2.54,4.19,4.19,0,0,1,1.55-1.75,4.12,4.12,0,0,1,2.21-.62,3.7,3.7,0,0,1,3,1.24,5.2,5.2,0,0,1,1.06,3.51v.86H312a2.8,2.8,0,0,0,.79,1.86,2.32,2.32,0,0,0,1.73.69,2.89,2.89,0,0,0,2.39-1.19l1.15,1.1a3.82,3.82,0,0,1-1.52,1.32A4.84,4.84,0,0,1,314.4,508.67Zm-.26-8.15a1.81,1.81,0,0,0-1.42.62,3.19,3.19,0,0,0-.69,1.71h4.07v-.16a2.54,2.54,0,0,0-.57-1.62A1.81,1.81,0,0,0,314.14,500.52Z"/><path class="cls-10" d="M334.71,508.49h-2.22l-5.71-9.07v9.07h-2.22V495.7h2.22l5.72,9.11V495.7h2.21Z"/><path class="cls-10" d="M336.73,503.65a5.62,5.62,0,0,1,.55-2.52,4.07,4.07,0,0,1,1.56-1.72,4.41,4.41,0,0,1,2.3-.6,4.14,4.14,0,0,1,3.13,1.24,4.83,4.83,0,0,1,1.29,3.29v.5a5.67,5.67,0,0,1-.54,2.51,3.94,3.94,0,0,1-1.54,1.71,4.4,4.4,0,0,1-2.33.61,4.13,4.13,0,0,1-3.22-1.34,5.1,5.1,0,0,1-1.21-3.57Zm2.14.19a3.82,3.82,0,0,0,.6,2.29,2,2,0,0,0,1.69.84,2,2,0,0,0,1.68-.85,4.22,4.22,0,0,0,.61-2.47,3.78,3.78,0,0,0-.62-2.28,2.09,2.09,0,0,0-3.35,0A4.18,4.18,0,0,0,338.87,503.84Z"/><path class="cls-10" d="M347,503.67a5.65,5.65,0,0,1,1-3.53,3.26,3.26,0,0,1,2.73-1.33,3.1,3.1,0,0,1,2.44,1.05V495h2.14v13.5h-1.93l-.11-1a3.16,3.16,0,0,1-2.56,1.16,3.26,3.26,0,0,1-2.7-1.34A5.87,5.87,0,0,1,347,503.67Zm2.13.18a4,4,0,0,0,.56,2.27,1.81,1.81,0,0,0,1.59.81,2,2,0,0,0,1.91-1.17V501.7a2,2,0,0,0-1.89-1.14,1.8,1.8,0,0,0-1.6.82A4.36,4.36,0,0,0,349.11,503.85Z"/><path class="cls-10" d="M361.73,508.67a4.45,4.45,0,0,1-3.3-1.28,4.64,4.64,0,0,1-1.26-3.4v-.27a5.75,5.75,0,0,1,.55-2.54,4.19,4.19,0,0,1,1.55-1.75,4.12,4.12,0,0,1,2.21-.62,3.7,3.7,0,0,1,3,1.24,5.2,5.2,0,0,1,1.06,3.51v.86h-6.21a2.84,2.84,0,0,0,.78,1.86,2.36,2.36,0,0,0,1.74.69,2.9,2.9,0,0,0,2.39-1.19l1.15,1.1a3.82,3.82,0,0,1-1.52,1.32A4.84,4.84,0,0,1,361.73,508.67Zm-.26-8.15a1.81,1.81,0,0,0-1.42.62,3.19,3.19,0,0,0-.69,1.71h4.07v-.16a2.65,2.65,0,0,0-.57-1.62A1.81,1.81,0,0,0,361.47,500.52Z"/><path class="cls-10" d="M379.05,505.52h-5l-1,3h-2.32l4.84-12.79h2l4.85,12.79H380.1Zm-4.33-1.8h3.71l-1.86-5.31Z"/><path class="cls-10" d="M383.29,503.67a5.52,5.52,0,0,1,1-3.54,3.33,3.33,0,0,1,2.76-1.32,3.14,3.14,0,0,1,2.56,1.13l.1-1h1.92v9.22a3.86,3.86,0,0,1-1.16,3,4.46,4.46,0,0,1-3.15,1.08,5.1,5.1,0,0,1-2-.44,3.77,3.77,0,0,1-1.52-1.13l1-1.29a3,3,0,0,0,2.42,1.17,2.37,2.37,0,0,0,1.68-.57,2.23,2.23,0,0,0,.62-1.7v-.64a3.15,3.15,0,0,1-2.47,1,3.33,3.33,0,0,1-2.73-1.33A5.77,5.77,0,0,1,383.29,503.67Zm2.12.18a3.84,3.84,0,0,0,.59,2.26,1.87,1.87,0,0,0,1.62.82,2.07,2.07,0,0,0,1.92-1.11v-4.18a2,2,0,0,0-1.9-1.08,1.89,1.89,0,0,0-1.64.83A4.29,4.29,0,0,0,385.41,503.85Z"/><path class="cls-10" d="M393.49,503.67a5.58,5.58,0,0,1,1-3.54,3.36,3.36,0,0,1,2.77-1.32,3.13,3.13,0,0,1,2.55,1.13l.1-1h1.92v9.22a3.83,3.83,0,0,1-1.16,3,4.44,4.44,0,0,1-3.14,1.08,5,5,0,0,1-2-.44,3.64,3.64,0,0,1-1.52-1.13l1-1.29a3.05,3.05,0,0,0,2.43,1.17,2.37,2.37,0,0,0,1.67-.57,2.23,2.23,0,0,0,.62-1.7v-.64a3.14,3.14,0,0,1-2.46,1,3.31,3.31,0,0,1-2.73-1.33A5.71,5.71,0,0,1,393.49,503.67Zm2.13.18a3.84,3.84,0,0,0,.58,2.26,1.87,1.87,0,0,0,1.62.82,2.07,2.07,0,0,0,1.92-1.11v-4.18a2,2,0,0,0-1.9-1.08,1.9,1.9,0,0,0-1.64.83A4.3,4.3,0,0,0,395.62,503.85Z"/><path class="cls-10" d="M409.05,500.94a4.94,4.94,0,0,0-.87-.07,2,2,0,0,0-2,1.12v6.5h-2.14V499h2l.06,1.07a2.39,2.39,0,0,1,2.14-1.24,2.09,2.09,0,0,1,.76.12Z"/><path class="cls-10" d="M414.42,508.67a4.45,4.45,0,0,1-3.3-1.28,4.64,4.64,0,0,1-1.26-3.4v-.27a5.75,5.75,0,0,1,.55-2.54,4.19,4.19,0,0,1,1.55-1.75,4.12,4.12,0,0,1,2.21-.62,3.7,3.7,0,0,1,3,1.24,5.2,5.2,0,0,1,1.06,3.51v.86H412a2.84,2.84,0,0,0,.78,1.86,2.36,2.36,0,0,0,1.74.69,2.89,2.89,0,0,0,2.39-1.19l1.15,1.1a3.82,3.82,0,0,1-1.52,1.32A4.84,4.84,0,0,1,414.42,508.67Zm-.26-8.15a1.81,1.81,0,0,0-1.42.62,3.19,3.19,0,0,0-.69,1.71h4.07v-.16a2.59,2.59,0,0,0-.57-1.62A1.81,1.81,0,0,0,414.16,500.52Z"/><path class="cls-10" d="M419.51,503.67a5.53,5.53,0,0,1,1.05-3.54,3.33,3.33,0,0,1,2.76-1.32,3.15,3.15,0,0,1,2.56,1.13l.09-1h1.93v9.22a3.86,3.86,0,0,1-1.16,3,4.46,4.46,0,0,1-3.15,1.08,5.06,5.06,0,0,1-2-.44,3.7,3.7,0,0,1-1.52-1.13l1-1.29a3.07,3.07,0,0,0,2.43,1.17,2.37,2.37,0,0,0,1.68-.57,2.22,2.22,0,0,0,.61-1.7v-.64a3.12,3.12,0,0,1-2.46,1,3.33,3.33,0,0,1-2.73-1.33A5.77,5.77,0,0,1,419.51,503.67Zm2.13.18a3.84,3.84,0,0,0,.59,2.26,1.87,1.87,0,0,0,1.62.82,2,2,0,0,0,1.91-1.11v-4.18a2,2,0,0,0-1.89-1.08,1.89,1.89,0,0,0-1.64.83A4.29,4.29,0,0,0,421.64,503.85Z"/><path class="cls-10" d="M435.77,508.49a3.38,3.38,0,0,1-.24-.88,3.32,3.32,0,0,1-2.5,1.06,3.36,3.36,0,0,1-2.34-.82,2.62,2.62,0,0,1-.9-2,2.68,2.68,0,0,1,1.13-2.33,5.48,5.48,0,0,1,3.23-.81h1.31v-.63a1.64,1.64,0,0,0-.42-1.18,1.6,1.6,0,0,0-1.25-.44,1.9,1.9,0,0,0-1.2.36,1.12,1.12,0,0,0-.46.93H430a2.38,2.38,0,0,1,.52-1.47,3.46,3.46,0,0,1,1.41-1.06,4.91,4.91,0,0,1,2-.39,4,4,0,0,1,2.66.84,2.94,2.94,0,0,1,1,2.36v4.29a4.89,4.89,0,0,0,.36,2.05v.14ZM433.43,507a2.48,2.48,0,0,0,1.19-.31,2.1,2.1,0,0,0,.84-.83V504h-1.15a3.22,3.22,0,0,0-1.79.41,1.35,1.35,0,0,0-.6,1.17,1.25,1.25,0,0,0,.41,1A1.58,1.58,0,0,0,433.43,507Z"/><path class="cls-10" d="M442.51,496.67V499h1.68v1.59h-1.68v5.31a1.17,1.17,0,0,0,.21.78,1,1,0,0,0,.77.24,3.82,3.82,0,0,0,.75-.08v1.65a5.51,5.51,0,0,1-1.41.2c-1.64,0-2.46-.9-2.46-2.72v-5.38h-1.56V499h1.56v-2.31Z"/><path class="cls-10" d="M445.82,496.52a1.12,1.12,0,0,1,.31-.82,1.38,1.38,0,0,1,1.79,0,1.12,1.12,0,0,1,.32.82,1.09,1.09,0,0,1-.32.8,1.41,1.41,0,0,1-1.79,0A1.09,1.09,0,0,1,445.82,496.52Zm2.27,12H446V499h2.14Z"/><path class="cls-10" d="M452.39,499l.07,1.1a3.4,3.4,0,0,1,2.76-1.27c2,0,3,1.13,3,3.4v6.28h-2.14v-6.16a2,2,0,0,0-.39-1.34,1.65,1.65,0,0,0-1.28-.43,2.05,2.05,0,0,0-1.92,1.17v6.76h-2.14V499Z"/><path class="cls-10" d="M460.05,503.67a5.58,5.58,0,0,1,1-3.54,3.36,3.36,0,0,1,2.77-1.32,3.13,3.13,0,0,1,2.55,1.13l.1-1h1.92v9.22a3.83,3.83,0,0,1-1.16,3,4.44,4.44,0,0,1-3.14,1.08,5.11,5.11,0,0,1-2.05-.44,3.66,3.66,0,0,1-1.51-1.13l1-1.29a3,3,0,0,0,2.42,1.17,2.37,2.37,0,0,0,1.68-.57,2.23,2.23,0,0,0,.62-1.7v-.64a3.14,3.14,0,0,1-2.46,1,3.31,3.31,0,0,1-2.73-1.33A5.71,5.71,0,0,1,460.05,503.67Zm2.13.18a3.84,3.84,0,0,0,.58,2.26,1.87,1.87,0,0,0,1.62.82,2.07,2.07,0,0,0,1.92-1.11v-4.18a2,2,0,0,0-1.9-1.08,1.9,1.9,0,0,0-1.64.83A4.3,4.3,0,0,0,462.18,503.85Z"/><path class="cls-10" d="M322.61,517.3l3.69,9.81L330,517.3h2.87v12.79h-2.21v-4.21l.22-5.65-3.78,9.86h-1.59l-3.77-9.85.22,5.64v4.21h-2.22V517.3Z"/><path class="cls-10" d="M341,529.16a3.31,3.31,0,0,1-2.67,1.11,3,3,0,0,1-2.35-.9,3.87,3.87,0,0,1-.79-2.62v-6.16h2.13v6.13c0,1.21.5,1.81,1.51,1.81a2.12,2.12,0,0,0,2.1-1.12v-6.82h2.13v9.5h-2Z"/><path class="cls-10" d="M347.55,530.09h-2.14v-13.5h2.14Z"/><path class="cls-10" d="M352.55,518.27v2.32h1.68v1.58h-1.68v5.31a1.12,1.12,0,0,0,.22.78,1,1,0,0,0,.77.24,3.81,3.81,0,0,0,.74-.08v1.65a5.38,5.38,0,0,1-1.4.2c-1.64,0-2.47-.9-2.47-2.72v-5.38h-1.56v-1.58h1.56v-2.32Z"/><path class="cls-10" d="M355.86,518.12a1.12,1.12,0,0,1,.32-.82,1.15,1.15,0,0,1,.89-.33,1.16,1.16,0,0,1,.89.33,1.08,1.08,0,0,1,.32.82,1.06,1.06,0,0,1-.32.8,1.2,1.2,0,0,1-.89.32,1.18,1.18,0,0,1-.89-.32A1.09,1.09,0,0,1,355.86,518.12Zm2.27,12H356v-9.5h2.13Z"/><path class="cls-10" d="M368.78,525.44a5.66,5.66,0,0,1-1,3.52,3.48,3.48,0,0,1-5.19.28v4.51h-2.14V520.59h2l.09,1a3.15,3.15,0,0,1,2.56-1.14,3.23,3.23,0,0,1,2.73,1.3,5.85,5.85,0,0,1,1,3.59Zm-2.12-.19a4,4,0,0,0-.57-2.26,1.86,1.86,0,0,0-1.62-.83,2,2,0,0,0-1.88,1.08v4.22a2,2,0,0,0,1.9,1.11,1.83,1.83,0,0,0,1.59-.83A4.36,4.36,0,0,0,366.66,525.25Z"/><path class="cls-10" d="M372.86,530.09h-2.13v-13.5h2.13Z"/><path class="cls-10" d="M379.37,530.27a4.43,4.43,0,0,1-3.29-1.28,4.64,4.64,0,0,1-1.26-3.4v-.27a5.61,5.61,0,0,1,.55-2.54,4.24,4.24,0,0,1,1.54-1.75,4.15,4.15,0,0,1,2.22-.62,3.73,3.73,0,0,1,3,1.24,5.2,5.2,0,0,1,1.06,3.51V526H377a2.84,2.84,0,0,0,.78,1.86,2.36,2.36,0,0,0,1.74.69,2.9,2.9,0,0,0,2.39-1.19l1.15,1.1a3.78,3.78,0,0,1-1.53,1.32A4.78,4.78,0,0,1,379.37,530.27Zm-.25-8.15a1.8,1.8,0,0,0-1.42.62,3.19,3.19,0,0,0-.69,1.71h4.07v-.16a2.65,2.65,0,0,0-.57-1.62A1.82,1.82,0,0,0,379.12,522.12Z"/><path class="cls-10" d="M398.9,517.3v8.55a4.15,4.15,0,0,1-1.31,3.23,5.74,5.74,0,0,1-7,0,4.18,4.18,0,0,1-1.29-3.26V517.3h2.22v8.56a2.7,2.7,0,0,0,.65,2,2.53,2.53,0,0,0,1.91.68c1.72,0,2.57-.91,2.57-2.71V517.3Z"/><path class="cls-10" d="M403,520.59l.07,1.09a3.4,3.4,0,0,1,2.76-1.27q3,0,3,3.4v6.28h-2.14v-6.16a2,2,0,0,0-.39-1.34,1.65,1.65,0,0,0-1.28-.43,2.05,2.05,0,0,0-1.92,1.17v6.76H401v-9.5Z"/><path class="cls-10" d="M411.08,518.12a1.12,1.12,0,0,1,.31-.82,1.16,1.16,0,0,1,.89-.33,1.19,1.19,0,0,1,.9.33,1.12,1.12,0,0,1,.31.82,1.09,1.09,0,0,1-.31.8,1.22,1.22,0,0,1-.9.32,1.2,1.2,0,0,1-.89-.32A1.09,1.09,0,0,1,411.08,518.12Zm2.26,12h-2.13v-9.5h2.13Z"/><path class="cls-10" d="M418.35,518.27v2.32H420v1.58h-1.67v5.31a1.17,1.17,0,0,0,.21.78,1,1,0,0,0,.77.24,3.82,3.82,0,0,0,.75-.08v1.65a5.51,5.51,0,0,1-1.41.2c-1.64,0-2.46-.9-2.46-2.72v-5.38h-1.56v-1.58h1.56v-2.32Z"/><path class="cls-10" d="M427,527.51a1,1,0,0,0-.47-.87,5.32,5.32,0,0,0-1.56-.53,7.5,7.5,0,0,1-1.82-.58,2.41,2.41,0,0,1-1.6-2.24,2.52,2.52,0,0,1,1-2,4,4,0,0,1,2.64-.83,4.26,4.26,0,0,1,2.75.84,2.71,2.71,0,0,1,1.06,2.19h-2.14a1.29,1.29,0,0,0-.46-1,1.75,1.75,0,0,0-1.21-.41,2,2,0,0,0-1.15.32,1,1,0,0,0-.44.87.88.88,0,0,0,.41.77,5.93,5.93,0,0,0,1.67.55,7.59,7.59,0,0,1,2,.66,2.77,2.77,0,0,1,1.06.92,2.33,2.33,0,0,1,.35,1.3,2.5,2.5,0,0,1-1.07,2.08,4.54,4.54,0,0,1-2.78.79,5,5,0,0,1-2.09-.42,3.42,3.42,0,0,1-1.42-1.16,2.73,2.73,0,0,1-.51-1.59h2.07a1.48,1.48,0,0,0,.58,1.16,2.65,2.65,0,0,0,2.68.09A1,1,0,0,0,427,527.51Z"/><path class="cls-10" d="M529.46,502.78h-5.25v3.94h6.14v1.77H522V495.7h8.31v1.79h-6.08V501h5.25Z"/><path class="cls-10" d="M531.39,503.67a5.65,5.65,0,0,1,1-3.53,3.24,3.24,0,0,1,2.73-1.33,3.1,3.1,0,0,1,2.44,1.05V495h2.14v13.5h-1.94l-.1-1a3.16,3.16,0,0,1-2.56,1.16,3.26,3.26,0,0,1-2.7-1.34A5.87,5.87,0,0,1,531.39,503.67Zm2.13.18a4,4,0,0,0,.56,2.27,1.81,1.81,0,0,0,1.59.81,2,2,0,0,0,1.91-1.17V501.7a2,2,0,0,0-1.9-1.14,1.83,1.83,0,0,0-1.6.82A4.45,4.45,0,0,0,533.52,503.85Z"/><path class="cls-10" d="M541.57,503.67a5.58,5.58,0,0,1,1-3.54,3.36,3.36,0,0,1,2.77-1.32,3.17,3.17,0,0,1,2.56,1.13l.09-1H550v9.22a3.83,3.83,0,0,1-1.17,3,4.42,4.42,0,0,1-3.14,1.08,5,5,0,0,1-2-.44,3.7,3.7,0,0,1-1.52-1.13l1-1.29a3.07,3.07,0,0,0,2.43,1.17,2.37,2.37,0,0,0,1.68-.57,2.22,2.22,0,0,0,.61-1.7v-.64a3.12,3.12,0,0,1-2.46,1,3.33,3.33,0,0,1-2.73-1.33A5.71,5.71,0,0,1,541.57,503.67Zm2.13.18a3.84,3.84,0,0,0,.58,2.26,1.88,1.88,0,0,0,1.63.82,2,2,0,0,0,1.91-1.11v-4.18a2,2,0,0,0-1.9-1.08,1.9,1.9,0,0,0-1.64.83A4.3,4.3,0,0,0,543.7,503.85Z"/><path class="cls-10" d="M556.34,508.67a4.41,4.41,0,0,1-3.29-1.28,4.64,4.64,0,0,1-1.26-3.4v-.27a5.75,5.75,0,0,1,.54-2.54,4.19,4.19,0,0,1,1.55-1.75,4.12,4.12,0,0,1,2.21-.62,3.7,3.7,0,0,1,3,1.24,5.2,5.2,0,0,1,1.06,3.51v.86h-6.21a2.8,2.8,0,0,0,.79,1.86,2.32,2.32,0,0,0,1.73.69,2.89,2.89,0,0,0,2.39-1.19l1.15,1.1a3.82,3.82,0,0,1-1.52,1.32A4.84,4.84,0,0,1,556.34,508.67Zm-.26-8.15a1.81,1.81,0,0,0-1.42.62,3.19,3.19,0,0,0-.69,1.71H558v-.16a2.54,2.54,0,0,0-.57-1.62A1.81,1.81,0,0,0,556.08,500.52Z"/><path class="cls-10" d="M576.65,508.49h-2.22l-5.71-9.07v9.07H566.5V495.7h2.22l5.72,9.11V495.7h2.21Z"/><path class="cls-10" d="M578.67,503.65a5.75,5.75,0,0,1,.55-2.52,4.07,4.07,0,0,1,1.56-1.72,4.41,4.41,0,0,1,2.3-.6,4.14,4.14,0,0,1,3.13,1.24,4.83,4.83,0,0,1,1.29,3.29v.5a5.67,5.67,0,0,1-.54,2.51,3.94,3.94,0,0,1-1.54,1.71,4.4,4.4,0,0,1-2.33.61,4.13,4.13,0,0,1-3.22-1.34,5.1,5.1,0,0,1-1.21-3.57Zm2.14.19a3.82,3.82,0,0,0,.6,2.29,2,2,0,0,0,1.69.84,2,2,0,0,0,1.68-.85,4.22,4.22,0,0,0,.61-2.47,3.78,3.78,0,0,0-.62-2.28,2.09,2.09,0,0,0-3.35,0A4.18,4.18,0,0,0,580.81,503.84Z"/><path class="cls-10" d="M588.92,503.67a5.65,5.65,0,0,1,1-3.53,3.26,3.26,0,0,1,2.73-1.33,3.13,3.13,0,0,1,2.45,1.05V495h2.13v13.5h-1.93l-.11-1a3.16,3.16,0,0,1-2.56,1.16,3.26,3.26,0,0,1-2.7-1.34A5.87,5.87,0,0,1,588.92,503.67Zm2.13.18a4,4,0,0,0,.56,2.27,1.81,1.81,0,0,0,1.59.81,2,2,0,0,0,1.92-1.17V501.7a2,2,0,0,0-1.9-1.14,1.81,1.81,0,0,0-1.6.82A4.36,4.36,0,0,0,591.05,503.85Z"/><path class="cls-10" d="M603.67,508.67a4.45,4.45,0,0,1-3.3-1.28,4.64,4.64,0,0,1-1.26-3.4v-.27a5.75,5.75,0,0,1,.55-2.54,4.19,4.19,0,0,1,1.55-1.75,4.12,4.12,0,0,1,2.21-.62,3.7,3.7,0,0,1,3,1.24,5.2,5.2,0,0,1,1.06,3.51v.86h-6.21a2.84,2.84,0,0,0,.78,1.86,2.36,2.36,0,0,0,1.74.69,2.89,2.89,0,0,0,2.39-1.19l1.15,1.1a3.82,3.82,0,0,1-1.52,1.32A4.84,4.84,0,0,1,603.67,508.67Zm-.26-8.15a1.81,1.81,0,0,0-1.42.62,3.19,3.19,0,0,0-.69,1.71h4.07v-.16a2.59,2.59,0,0,0-.57-1.62A1.81,1.81,0,0,0,603.41,500.52Z"/><path class="cls-10" d="M613.22,503.65a5.75,5.75,0,0,1,.55-2.52,4.07,4.07,0,0,1,1.56-1.72,4.41,4.41,0,0,1,2.3-.6,4.14,4.14,0,0,1,3.13,1.24,4.83,4.83,0,0,1,1.29,3.29v.5a5.67,5.67,0,0,1-.54,2.51,3.94,3.94,0,0,1-1.54,1.71,4.4,4.4,0,0,1-2.33.61,4.13,4.13,0,0,1-3.22-1.34,5.1,5.1,0,0,1-1.21-3.57Zm2.14.19a3.82,3.82,0,0,0,.6,2.29,2,2,0,0,0,1.69.84,2,2,0,0,0,1.68-.85,4.22,4.22,0,0,0,.61-2.47,3.78,3.78,0,0,0-.62-2.28,2.09,2.09,0,0,0-3.35,0A4.18,4.18,0,0,0,615.36,503.84Z"/><path class="cls-10" d="M625.85,499l.06,1.1a3.43,3.43,0,0,1,2.77-1.27q3,0,3,3.4v6.28h-2.13v-6.16a2,2,0,0,0-.39-1.34,1.65,1.65,0,0,0-1.28-.43,2.07,2.07,0,0,0-1.93,1.17v6.76h-2.13V499Z"/><path class="cls-10" d="M644,508.49a3.38,3.38,0,0,1-.24-.88,3.32,3.32,0,0,1-2.5,1.06,3.36,3.36,0,0,1-2.34-.82,2.62,2.62,0,0,1-.9-2,2.68,2.68,0,0,1,1.13-2.33,5.48,5.48,0,0,1,3.23-.81h1.31v-.63a1.64,1.64,0,0,0-.42-1.18,1.6,1.6,0,0,0-1.25-.44,1.9,1.9,0,0,0-1.2.36,1.12,1.12,0,0,0-.46.93h-2.14a2.38,2.38,0,0,1,.52-1.47,3.34,3.34,0,0,1,1.41-1.06,4.91,4.91,0,0,1,2-.39,4,4,0,0,1,2.66.84,2.94,2.94,0,0,1,1,2.36v4.29a4.89,4.89,0,0,0,.36,2.05v.14ZM641.7,507a2.48,2.48,0,0,0,1.19-.31,2.1,2.1,0,0,0,.84-.83V504h-1.15a3.22,3.22,0,0,0-1.79.41,1.35,1.35,0,0,0-.6,1.17,1.25,1.25,0,0,0,.41,1A1.56,1.56,0,0,0,641.7,507Z"/><path class="cls-10" d="M516.78,524.67h-5.15v5.42h-2.22V517.3h8.13v1.79h-5.91v3.81h5.15Z"/><path class="cls-10" d="M524.47,530.09a3.31,3.31,0,0,1-.25-.88,3.59,3.59,0,0,1-4.83.24,2.62,2.62,0,0,1-.91-2,2.7,2.7,0,0,1,1.13-2.33,5.5,5.5,0,0,1,3.23-.81h1.31v-.63a1.48,1.48,0,0,0-1.67-1.62,1.89,1.89,0,0,0-1.19.36,1.13,1.13,0,0,0-.47.93h-2.13a2.38,2.38,0,0,1,.52-1.47,3.34,3.34,0,0,1,1.41-1.06,4.87,4.87,0,0,1,2-.39,4,4,0,0,1,2.66.84,3,3,0,0,1,1,2.36v4.29a4.89,4.89,0,0,0,.36,2.05v.14Zm-2.35-1.53a2.48,2.48,0,0,0,1.19-.31,2,2,0,0,0,.84-.83v-1.79H523a3.19,3.19,0,0,0-1.78.41,1.35,1.35,0,0,0-.6,1.17,1.25,1.25,0,0,0,.41,1A1.55,1.55,0,0,0,522.12,528.56Z"/><path class="cls-10" d="M532.43,528.57a1.93,1.93,0,0,0,1.33-.47,1.57,1.57,0,0,0,.56-1.15h2a3.1,3.1,0,0,1-.55,1.66,3.56,3.56,0,0,1-1.41,1.21,4.16,4.16,0,0,1-1.91.45,4.07,4.07,0,0,1-3.17-1.29,5.16,5.16,0,0,1-1.16-3.57v-.22a5,5,0,0,1,1.16-3.48,4,4,0,0,1,3.16-1.3,3.89,3.89,0,0,1,2.76,1,3.49,3.49,0,0,1,1.12,2.6h-2a1.94,1.94,0,0,0-.56-1.35,1.8,1.8,0,0,0-1.33-.53,1.89,1.89,0,0,0-1.6.75,4,4,0,0,0-.57,2.29v.34a3.93,3.93,0,0,0,.56,2.31A1.89,1.89,0,0,0,532.43,528.57Z"/><path class="cls-10" d="M540.62,518.27v2.32h1.68v1.58h-1.68v5.31a1.17,1.17,0,0,0,.22.78,1,1,0,0,0,.77.24,4,4,0,0,0,.75-.08v1.65a5.51,5.51,0,0,1-1.41.2c-1.64,0-2.46-.9-2.46-2.72v-5.38h-1.57v-1.58h1.57v-2.32Z"/><path class="cls-10" d="M543.27,525.25a5.62,5.62,0,0,1,.55-2.52,4.07,4.07,0,0,1,1.56-1.72,4.38,4.38,0,0,1,2.3-.6,4.16,4.16,0,0,1,3.13,1.24,4.83,4.83,0,0,1,1.29,3.29v.5a5.67,5.67,0,0,1-.54,2.51,4,4,0,0,1-1.55,1.71,4.34,4.34,0,0,1-2.32.61,4.13,4.13,0,0,1-3.22-1.34,5.1,5.1,0,0,1-1.21-3.57Zm2.14.19a3.82,3.82,0,0,0,.6,2.29,2,2,0,0,0,1.69.84,2,2,0,0,0,1.68-.85,4.23,4.23,0,0,0,.6-2.47,3.72,3.72,0,0,0-.62-2.28,2.08,2.08,0,0,0-3.34,0A4.2,4.2,0,0,0,545.41,525.44Z"/><path class="cls-10" d="M558.9,522.54a4.94,4.94,0,0,0-.87-.07,2,2,0,0,0-2,1.12v6.5h-2.14v-9.5h2l0,1.06a2.42,2.42,0,0,1,2.15-1.24,2.09,2.09,0,0,1,.76.12Z"/><path class="cls-10" d="M563.73,527l1.93-6.45h2.28l-3.78,10.95c-.58,1.6-1.56,2.4-2.95,2.4a4,4,0,0,1-1-.16v-1.66l.4,0a2.13,2.13,0,0,0,1.22-.29,2,2,0,0,0,.65-1l.3-.82-3.34-9.45h2.31Z"/><path class="cls-10" d="M580.54,526.8a1.53,1.53,0,0,0-.59-1.3,7.07,7.07,0,0,0-2.14-.92,10.8,10.8,0,0,1-2.46-1,3.28,3.28,0,0,1-1.75-2.87,3.13,3.13,0,0,1,1.26-2.55,5.15,5.15,0,0,1,3.28-1,5.65,5.65,0,0,1,2.38.49,4,4,0,0,1,1.64,1.41,3.57,3.57,0,0,1,.6,2h-2.22a2,2,0,0,0-.62-1.57,2.64,2.64,0,0,0-1.8-.56,2.7,2.7,0,0,0-1.69.46,1.54,1.54,0,0,0-.61,1.3,1.43,1.43,0,0,0,.65,1.18,7.52,7.52,0,0,0,2.15.91,10,10,0,0,1,2.4,1,4,4,0,0,1,1.33,1.3,3.42,3.42,0,0,1,.42,1.72,3,3,0,0,1-1.23,2.55,5.31,5.31,0,0,1-3.33.94,6.31,6.31,0,0,1-2.55-.51,4.35,4.35,0,0,1-1.81-1.42,3.56,3.56,0,0,1-.64-2.11h2.22a2.09,2.09,0,0,0,.72,1.69,3.2,3.2,0,0,0,2.06.59A2.71,2.71,0,0,0,580,528,1.51,1.51,0,0,0,580.54,526.8Z"/><path class="cls-10" d="M586.62,521.62a3.32,3.32,0,0,1,2.64-1.21q3,0,3.09,3.47v6.21h-2.14V524a1.88,1.88,0,0,0-.42-1.39,1.74,1.74,0,0,0-1.26-.41,2.05,2.05,0,0,0-1.91,1.14v6.79h-2.14v-13.5h2.14Z"/><path class="cls-10" d="M594.11,525.25a5.62,5.62,0,0,1,.55-2.52,4.12,4.12,0,0,1,1.55-1.72,4.42,4.42,0,0,1,2.31-.6,4.14,4.14,0,0,1,3.12,1.24,4.89,4.89,0,0,1,1.3,3.29v.5a5.67,5.67,0,0,1-.54,2.51,4,4,0,0,1-1.55,1.71,4.37,4.37,0,0,1-2.32.61,4.15,4.15,0,0,1-3.23-1.34,5.14,5.14,0,0,1-1.2-3.57Zm2.13.19a3.75,3.75,0,0,0,.61,2.29,2.1,2.1,0,0,0,3.37,0,4.23,4.23,0,0,0,.6-2.47,3.78,3.78,0,0,0-.62-2.28,2.08,2.08,0,0,0-3.34,0A4.19,4.19,0,0,0,596.24,525.44Z"/><path class="cls-10" d="M613.08,525.44a5.66,5.66,0,0,1-1,3.52,3.49,3.49,0,0,1-5.2.28v4.51h-2.13V520.59h2l.09,1a3.13,3.13,0,0,1,2.55-1.14,3.23,3.23,0,0,1,2.73,1.3,5.78,5.78,0,0,1,1,3.59Zm-2.13-.19a4,4,0,0,0-.56-2.26,1.86,1.86,0,0,0-1.62-.83,2,2,0,0,0-1.89,1.08v4.22a2,2,0,0,0,1.9,1.11,1.86,1.86,0,0,0,1.6-.83A4.36,4.36,0,0,0,611,525.25Z"/><path class="cls-10" d="M627,524.67H621.8v5.42h-2.22V517.3h8.13v1.79H621.8v3.81H627Z"/><path class="cls-10" d="M631.53,530.09h-2.14v-13.5h2.14Z"/><path class="cls-10" d="M633.45,525.25a5.62,5.62,0,0,1,.56-2.52,4.12,4.12,0,0,1,1.55-1.72,4.42,4.42,0,0,1,2.31-.6,4.14,4.14,0,0,1,3.12,1.24,4.89,4.89,0,0,1,1.3,3.29v.5a5.67,5.67,0,0,1-.54,2.51,4,4,0,0,1-1.55,1.71,4.38,4.38,0,0,1-2.33.61,4.14,4.14,0,0,1-3.22-1.34,5.14,5.14,0,0,1-1.21-3.57Zm2.14.19a3.75,3.75,0,0,0,.61,2.29,2,2,0,0,0,1.68.84,2,2,0,0,0,1.69-.85,4.23,4.23,0,0,0,.6-2.47,3.78,3.78,0,0,0-.62-2.28,2.08,2.08,0,0,0-3.34,0A4.12,4.12,0,0,0,635.59,525.44Z"/><path class="cls-10" d="M643.7,525.25a5.62,5.62,0,0,1,.56-2.52,4,4,0,0,1,1.55-1.72,4.41,4.41,0,0,1,2.3-.6,4.14,4.14,0,0,1,3.13,1.24,4.89,4.89,0,0,1,1.3,3.29v.5A5.67,5.67,0,0,1,652,528a3.94,3.94,0,0,1-1.54,1.71,4.38,4.38,0,0,1-2.33.61,4.14,4.14,0,0,1-3.22-1.34,5.1,5.1,0,0,1-1.21-3.57Zm2.14.19a3.82,3.82,0,0,0,.6,2.29,2,2,0,0,0,1.69.84,2,2,0,0,0,1.68-.85,4.15,4.15,0,0,0,.61-2.47,3.78,3.78,0,0,0-.62-2.28,2.09,2.09,0,0,0-3.35,0A4.2,4.2,0,0,0,645.84,525.44Z"/><path class="cls-10" d="M659.33,522.54a4.94,4.94,0,0,0-.87-.07,2,2,0,0,0-2,1.12v6.5h-2.13v-9.5h2l.06,1.06a2.39,2.39,0,0,1,2.14-1.24,2.05,2.05,0,0,1,.76.12Z"/><path class="cls-10" d="M463.12,163.88a7.78,7.78,0,0,1-.65,3.3,4.92,4.92,0,0,1-1.86,2.18,5.45,5.45,0,0,1-5.55,0,5,5,0,0,1-1.88-2.17,7.56,7.56,0,0,1-.68-3.24v-.73a7.84,7.84,0,0,1,.67-3.3,4.87,4.87,0,0,1,1.87-2.19,5.08,5.08,0,0,1,2.77-.76,5.17,5.17,0,0,1,2.78.75,4.94,4.94,0,0,1,1.86,2.16,7.68,7.68,0,0,1,.67,3.28Zm-2.22-.67a5.54,5.54,0,0,0-.81-3.26,2.83,2.83,0,0,0-4.53,0,5.51,5.51,0,0,0-.83,3.2v.74a5.55,5.55,0,0,0,.82,3.26,2.67,2.67,0,0,0,2.28,1.15,2.61,2.61,0,0,0,2.27-1.13,5.65,5.65,0,0,0,.8-3.28Z"/><path class="cls-10" d="M467.11,160.43l.06,1.1a3.44,3.44,0,0,1,2.77-1.28q3,0,3,3.41v6.28h-2.14v-6.16a2,2,0,0,0-.39-1.34,1.65,1.65,0,0,0-1.28-.44,2.05,2.05,0,0,0-1.92,1.17v6.77H465.1v-9.51Z"/><path class="cls-10" d="M479.29,165.36h-4.62v-1.72h4.62Z"/><path class="cls-10" d="M489.37,165.28a5.64,5.64,0,0,1-1,3.52,3.19,3.19,0,0,1-2.69,1.32,3.25,3.25,0,0,1-2.5-1v4.51H481V160.43h2l.09,1a3.13,3.13,0,0,1,2.56-1.15,3.26,3.26,0,0,1,2.73,1.3,5.88,5.88,0,0,1,1,3.6Zm-2.12-.18a3.94,3.94,0,0,0-.57-2.26,1.84,1.84,0,0,0-1.62-.84,2,2,0,0,0-1.88,1.08v4.22a2,2,0,0,0,1.9,1.11,1.82,1.82,0,0,0,1.59-.82A4.32,4.32,0,0,0,487.25,165.1Z"/><path class="cls-10" d="M496.16,162.38a4.94,4.94,0,0,0-.87-.07,2,2,0,0,0-2,1.13v6.5h-2.13v-9.51h2l0,1.06a2.41,2.41,0,0,1,2.14-1.24,2,2,0,0,1,.76.13Z"/><path class="cls-10" d="M501.53,170.12a4.43,4.43,0,0,1-3.29-1.28,4.66,4.66,0,0,1-1.26-3.41v-.26a5.69,5.69,0,0,1,.55-2.55,4.14,4.14,0,0,1,1.54-1.74,4,4,0,0,1,2.21-.63,3.77,3.77,0,0,1,3,1.24,5.29,5.29,0,0,1,1,3.51v.86h-6.21a2.85,2.85,0,0,0,.79,1.86,2.35,2.35,0,0,0,1.73.69,2.89,2.89,0,0,0,2.39-1.19l1.16,1.1a4,4,0,0,1-1.53,1.33A4.84,4.84,0,0,1,501.53,170.12Zm-.25-8.15a1.79,1.79,0,0,0-1.42.61,3.19,3.19,0,0,0-.69,1.72h4.07v-.16a2.55,2.55,0,0,0-.58-1.62A1.75,1.75,0,0,0,501.28,162Z"/><path class="cls-10" d="M509,160.43l.06,1a3.42,3.42,0,0,1,2.74-1.17,2.63,2.63,0,0,1,2.61,1.46,3.4,3.4,0,0,1,2.92-1.46,3,3,0,0,1,2.34.87,3.8,3.8,0,0,1,.79,2.57v6.25h-2.14v-6.19a1.94,1.94,0,0,0-.39-1.33,1.73,1.73,0,0,0-1.31-.42,1.78,1.78,0,0,0-1.19.39,2.17,2.17,0,0,0-.65,1v6.52h-2.13v-6.26A1.53,1.53,0,0,0,511,162a1.89,1.89,0,0,0-1.82,1.05v6.89H507v-9.51Z"/><path class="cls-10" d="M522.67,158a1.13,1.13,0,0,1,.31-.82,1.41,1.41,0,0,1,1.79,0,1.13,1.13,0,0,1,.31.82,1.09,1.09,0,0,1-.31.8,1.38,1.38,0,0,1-1.79,0A1.09,1.09,0,0,1,522.67,158Zm2.27,12H522.8v-9.51h2.14Z"/><path class="cls-10" d="M532.59,167.36a1,1,0,0,0-.47-.87,4.85,4.85,0,0,0-1.56-.53,8.13,8.13,0,0,1-1.82-.58,2.42,2.42,0,0,1-1.6-2.24,2.54,2.54,0,0,1,1-2.06,4.11,4.11,0,0,1,2.64-.83,4.28,4.28,0,0,1,2.75.85,2.67,2.67,0,0,1,1,2.19h-2.13a1.36,1.36,0,0,0-.46-1,1.77,1.77,0,0,0-1.21-.41,1.87,1.87,0,0,0-1.15.33,1,1,0,0,0-.45.87.85.85,0,0,0,.42.76,5.24,5.24,0,0,0,1.67.55,8.32,8.32,0,0,1,2,.66,2.78,2.78,0,0,1,1.06.92,2.28,2.28,0,0,1,.35,1.3,2.47,2.47,0,0,1-1.06,2.08,4.55,4.55,0,0,1-2.79.8,4.92,4.92,0,0,1-2.08-.43,3.38,3.38,0,0,1-1.43-1.16,2.8,2.8,0,0,1-.5-1.59h2.07a1.51,1.51,0,0,0,.57,1.17,2.24,2.24,0,0,0,1.4.41,2.18,2.18,0,0,0,1.28-.32A1,1,0,0,0,532.59,167.36Z"/><path class="cls-10" d="M540.74,170.12a4.41,4.41,0,0,1-3.29-1.28,4.66,4.66,0,0,1-1.26-3.41v-.26a5.69,5.69,0,0,1,.55-2.55,4.14,4.14,0,0,1,1.54-1.74,4,4,0,0,1,2.21-.63,3.73,3.73,0,0,1,3,1.24,5.24,5.24,0,0,1,1.06,3.51v.86h-6.21a2.76,2.76,0,0,0,.79,1.86,2.32,2.32,0,0,0,1.73.69,2.89,2.89,0,0,0,2.39-1.19l1.15,1.1a3.92,3.92,0,0,1-1.52,1.33A4.84,4.84,0,0,1,540.74,170.12Zm-.26-8.15a1.8,1.8,0,0,0-1.42.61,3.19,3.19,0,0,0-.69,1.72h4.07v-.16a2.49,2.49,0,0,0-.57-1.62A1.76,1.76,0,0,0,540.48,162Z"/><path class="cls-10" d="M557.59,166.64a1.55,1.55,0,0,0-.6-1.3,7.2,7.2,0,0,0-2.14-.92,10.36,10.36,0,0,1-2.46-1,3.28,3.28,0,0,1-1.75-2.86A3.13,3.13,0,0,1,551.9,158a5.13,5.13,0,0,1,3.28-1,5.5,5.5,0,0,1,2.38.49,3.82,3.82,0,0,1,1.64,1.4,3.6,3.6,0,0,1,.6,2h-2.21a2,2,0,0,0-.63-1.57,2.59,2.59,0,0,0-1.8-.57,2.7,2.7,0,0,0-1.69.47,1.55,1.55,0,0,0-.6,1.3,1.38,1.38,0,0,0,.65,1.17,7.4,7.4,0,0,0,2.14.92,9.45,9.45,0,0,1,2.4,1,3.86,3.86,0,0,1,1.33,1.3,3.4,3.4,0,0,1,.42,1.72,3,3,0,0,1-1.23,2.54,5.28,5.28,0,0,1-3.32,1,6.25,6.25,0,0,1-2.55-.52,4.22,4.22,0,0,1-1.82-1.42,3.52,3.52,0,0,1-.64-2.11h2.22a2.07,2.07,0,0,0,.72,1.69,3.15,3.15,0,0,0,2.07.6,2.76,2.76,0,0,0,1.74-.47A1.54,1.54,0,0,0,557.59,166.64Z"/><path class="cls-10" d="M564.88,166.88l1.94-6.45h2.27l-3.78,10.95c-.58,1.6-1.56,2.4-2.95,2.4a3.7,3.7,0,0,1-1-.16V172l.41,0a2,2,0,0,0,1.21-.3,1.94,1.94,0,0,0,.65-1l.31-.82-3.34-9.46h2.3Z"/><path class="cls-10" d="M575.65,167.36a1,1,0,0,0-.47-.87,5,5,0,0,0-1.56-.53,8.13,8.13,0,0,1-1.82-.58,2.42,2.42,0,0,1-1.6-2.24,2.52,2.52,0,0,1,1-2.06,4.1,4.1,0,0,1,2.63-.83,4.29,4.29,0,0,1,2.76.85,2.67,2.67,0,0,1,1,2.19h-2.14a1.35,1.35,0,0,0-.45-1,1.78,1.78,0,0,0-1.22-.41,1.84,1.84,0,0,0-1.14.33,1,1,0,0,0-.45.87.85.85,0,0,0,.42.76,5.24,5.24,0,0,0,1.67.55,8.48,8.48,0,0,1,2,.66,2.78,2.78,0,0,1,1.06.92,2.36,2.36,0,0,1,.35,1.3,2.49,2.49,0,0,1-1.06,2.08,4.55,4.55,0,0,1-2.79.8,4.92,4.92,0,0,1-2.08-.43,3.38,3.38,0,0,1-1.43-1.16,2.73,2.73,0,0,1-.51-1.59H572a1.51,1.51,0,0,0,.57,1.17,2.24,2.24,0,0,0,1.4.41,2.18,2.18,0,0,0,1.28-.32A1,1,0,0,0,575.65,167.36Z"/><path class="cls-10" d="M582.28,158.12v2.31H584V162h-1.68v5.31a1.2,1.2,0,0,0,.22.79,1,1,0,0,0,.77.24,3.33,3.33,0,0,0,.75-.09v1.65a5.13,5.13,0,0,1-1.41.21c-1.64,0-2.46-.91-2.46-2.72V162h-1.57v-1.58h1.57v-2.31Z"/><path class="cls-10" d="M589.78,170.12a4.43,4.43,0,0,1-3.29-1.28,4.66,4.66,0,0,1-1.26-3.41v-.26a5.69,5.69,0,0,1,.55-2.55,4.14,4.14,0,0,1,1.54-1.74,4,4,0,0,1,2.22-.63,3.76,3.76,0,0,1,3,1.24A5.29,5.29,0,0,1,593.6,165v.86h-6.22a2.85,2.85,0,0,0,.79,1.86,2.35,2.35,0,0,0,1.73.69,2.89,2.89,0,0,0,2.39-1.19l1.16,1.1a3.88,3.88,0,0,1-1.53,1.33A4.81,4.81,0,0,1,589.78,170.12Zm-.25-8.15a1.79,1.79,0,0,0-1.42.61,3.19,3.19,0,0,0-.69,1.72h4.07v-.16a2.55,2.55,0,0,0-.58-1.62A1.75,1.75,0,0,0,589.53,162Z"/><path class="cls-10" d="M597.26,160.43l.06,1a3.42,3.42,0,0,1,2.74-1.17,2.62,2.62,0,0,1,2.61,1.46,3.4,3.4,0,0,1,2.92-1.46,3,3,0,0,1,2.35.87,3.85,3.85,0,0,1,.78,2.57v6.25h-2.13v-6.19a1.94,1.94,0,0,0-.4-1.33,1.73,1.73,0,0,0-1.31-.42,1.78,1.78,0,0,0-1.19.39,2.17,2.17,0,0,0-.65,1v6.52h-2.13v-6.26A1.53,1.53,0,0,0,599.2,162a1.89,1.89,0,0,0-1.82,1.05v6.89h-2.13v-9.51Z"/><path class="cls-10" d="M616.25,167.36a1,1,0,0,0-.47-.87,5,5,0,0,0-1.57-.53,8,8,0,0,1-1.81-.58,2.42,2.42,0,0,1-1.6-2.24,2.53,2.53,0,0,1,1-2.06,4.11,4.11,0,0,1,2.64-.83,4.26,4.26,0,0,1,2.75.85,2.68,2.68,0,0,1,1.06,2.19h-2.14a1.33,1.33,0,0,0-.46-1,1.75,1.75,0,0,0-1.21-.41,1.89,1.89,0,0,0-1.15.33,1,1,0,0,0-.44.87.86.86,0,0,0,.41.76,5.33,5.33,0,0,0,1.67.55,8.42,8.42,0,0,1,2,.66,2.85,2.85,0,0,1,1.06.92,2.36,2.36,0,0,1,.35,1.3,2.48,2.48,0,0,1-1.07,2.08,4.54,4.54,0,0,1-2.78.8,5,5,0,0,1-2.09-.43,3.35,3.35,0,0,1-1.42-1.16,2.73,2.73,0,0,1-.51-1.59h2.07a1.51,1.51,0,0,0,.57,1.17,2.26,2.26,0,0,0,1.4.41,2.23,2.23,0,0,0,1.29-.32A1,1,0,0,0,616.25,167.36Z"/><path class="cls-10" d="M82.84,167h-5l-1,3H74.53l4.84-12.8h2l4.84,12.8H83.88Zm-4.34-1.79h3.71l-1.85-5.31Z"/><path class="cls-10" d="M89,160.43l.06,1.1a3.42,3.42,0,0,1,2.77-1.28q3,0,3,3.41v6.28H92.73v-6.16a2,2,0,0,0-.4-1.34,1.63,1.63,0,0,0-1.27-.44,2.05,2.05,0,0,0-1.93,1.17v6.77H87v-9.51Z"/><path class="cls-10" d="M100.36,166.88l1.94-6.45h2.27l-3.78,10.95c-.58,1.6-1.56,2.4-3,2.4a3.7,3.7,0,0,1-1-.16V172l.41,0a2,2,0,0,0,1.21-.3,1.88,1.88,0,0,0,.65-1l.31-.82-3.34-9.46h2.3Z"/><path class="cls-10" d="M120.25,165.77a4.63,4.63,0,0,1-1.51,3.2,5.19,5.19,0,0,1-3.51,1.15,5,5,0,0,1-2.69-.73,4.71,4.71,0,0,1-1.8-2.06,7.52,7.52,0,0,1-.66-3.1V163a7.45,7.45,0,0,1,.65-3.19,4.8,4.8,0,0,1,1.84-2.13,5.19,5.19,0,0,1,2.77-.74,5,5,0,0,1,3.41,1.14,4.81,4.81,0,0,1,1.5,3.25H118a3.2,3.2,0,0,0-.81-2,2.64,2.64,0,0,0-1.89-.61,2.59,2.59,0,0,0-2.23,1.06,5.28,5.28,0,0,0-.79,3.11v1.14a5.57,5.57,0,0,0,.74,3.16,2.45,2.45,0,0,0,2.17,1.09,2.83,2.83,0,0,0,2-.59,3.06,3.06,0,0,0,.84-2Z"/><path class="cls-10" d="M124.3,169.94h-2.13v-13.5h2.13Z"/><path class="cls-10" d="M126.23,165.1a5.62,5.62,0,0,1,.55-2.52,4,4,0,0,1,1.56-1.72,4.39,4.39,0,0,1,2.3-.61,4.2,4.2,0,0,1,3.13,1.24,4.87,4.87,0,0,1,1.29,3.29v.5a5.69,5.69,0,0,1-.54,2.52,4,4,0,0,1-1.55,1.71,4.44,4.44,0,0,1-2.32.61,4.13,4.13,0,0,1-3.22-1.34,5.14,5.14,0,0,1-1.21-3.58Zm2.14.18a3.86,3.86,0,0,0,.6,2.3,2,2,0,0,0,1.69.83,2,2,0,0,0,1.68-.84,4.27,4.27,0,0,0,.6-2.47,3.75,3.75,0,0,0-.62-2.29,2.09,2.09,0,0,0-3.34,0A4.14,4.14,0,0,0,128.37,165.28Z"/><path class="cls-10" d="M142.64,169a3.31,3.31,0,0,1-2.67,1.11,3,3,0,0,1-2.35-.91,3.85,3.85,0,0,1-.79-2.62v-6.16H139v6.14c0,1.2.51,1.81,1.51,1.81a2.12,2.12,0,0,0,2.1-1.12v-6.83h2.13v9.51h-2Z"/><path class="cls-10" d="M146.48,165.11a5.62,5.62,0,0,1,1-3.52,3.27,3.27,0,0,1,2.73-1.34,3.14,3.14,0,0,1,2.45,1.06v-4.87h2.13v13.5h-1.93l-.11-1a3.16,3.16,0,0,1-2.56,1.16,3.25,3.25,0,0,1-2.7-1.35A5.85,5.85,0,0,1,146.48,165.11Zm2.14.19a4,4,0,0,0,.55,2.26,1.82,1.82,0,0,0,1.59.82,2,2,0,0,0,1.92-1.17v-4.06a2,2,0,0,0-1.9-1.15,1.82,1.82,0,0,0-1.6.83A4.34,4.34,0,0,0,148.62,165.3Z"/><path class="cls-10" d="M161.12,165.1a5.62,5.62,0,0,1,.56-2.52,3.93,3.93,0,0,1,1.55-1.72,4.41,4.41,0,0,1,2.3-.61,4.18,4.18,0,0,1,3.13,1.24,4.93,4.93,0,0,1,1.3,3.29v.5a5.69,5.69,0,0,1-.54,2.52,4,4,0,0,1-1.54,1.71,4.47,4.47,0,0,1-2.33.61,4.14,4.14,0,0,1-3.22-1.34,5.14,5.14,0,0,1-1.21-3.58Zm2.14.18a3.86,3.86,0,0,0,.6,2.3,2,2,0,0,0,1.69.83,2,2,0,0,0,1.68-.84,4.19,4.19,0,0,0,.61-2.47,3.82,3.82,0,0,0-.62-2.29,2,2,0,0,0-1.69-.84,2,2,0,0,0-1.66.83A4.14,4.14,0,0,0,163.26,165.28Z"/><path class="cls-10" d="M176.75,162.38a4.94,4.94,0,0,0-.87-.07,2,2,0,0,0-2,1.13v6.5h-2.13v-9.51h2l.06,1.06a2.41,2.41,0,0,1,2.14-1.24,2,2,0,0,1,.76.13Z"/><path class="cls-10" d="M185.13,169.94h-2.21v-12.8h2.21Z"/><path class="cls-10" d="M187.26,165.1a5.75,5.75,0,0,1,.55-2.52,4,4,0,0,1,1.56-1.72,4.41,4.41,0,0,1,2.3-.61,4.18,4.18,0,0,1,3.13,1.24,4.87,4.87,0,0,1,1.29,3.29v.5a5.69,5.69,0,0,1-.54,2.52,4,4,0,0,1-1.54,1.71,4.5,4.5,0,0,1-2.33.61,4.13,4.13,0,0,1-3.22-1.34,5.14,5.14,0,0,1-1.21-3.58Zm2.14.18a3.86,3.86,0,0,0,.6,2.3,2,2,0,0,0,1.69.83,2,2,0,0,0,1.68-.84,4.27,4.27,0,0,0,.61-2.47,3.82,3.82,0,0,0-.62-2.29,2,2,0,0,0-1.69-.84,2,2,0,0,0-1.66.83A4.14,4.14,0,0,0,189.4,165.28Z"/><path class="cls-10" d="M207.36,158.94h-4v11h-2.21v-11h-3.95v-1.8h10.15Z"/><path class="cls-10" d="M215.22,165.19v4.75H213v-12.8h4.89a5,5,0,0,1,3.41,1.12,3.77,3.77,0,0,1,1.26,3,3.63,3.63,0,0,1-1.24,2.93,5.22,5.22,0,0,1-3.46,1Zm0-1.79h2.67a2.63,2.63,0,0,0,1.81-.56,2,2,0,0,0,.63-1.61,2.25,2.25,0,0,0-.64-1.66,2.43,2.43,0,0,0-1.74-.63h-2.73Z"/><path class="cls-10" d="M226.57,169.94h-2.14v-13.5h2.14Z"/><path class="cls-10" d="M234.57,169.94a3.48,3.48,0,0,1-.24-.89,3.34,3.34,0,0,1-2.5,1.07,3.39,3.39,0,0,1-2.34-.82,2.63,2.63,0,0,1-.9-2,2.7,2.7,0,0,1,1.13-2.34,5.48,5.48,0,0,1,3.23-.81h1.31v-.62a1.66,1.66,0,0,0-.42-1.19,1.64,1.64,0,0,0-1.25-.44,1.85,1.85,0,0,0-1.2.37,1.12,1.12,0,0,0-.47.92h-2.13a2.33,2.33,0,0,1,.52-1.46,3.35,3.35,0,0,1,1.41-1.07,4.91,4.91,0,0,1,2-.39,4,4,0,0,1,2.66.84,3,3,0,0,1,1,2.36v4.29a4.86,4.86,0,0,0,.36,2v.15Zm-2.34-1.54a2.4,2.4,0,0,0,1.19-.31,2.07,2.07,0,0,0,.84-.82v-1.79H233.1a3.1,3.1,0,0,0-1.78.41,1.33,1.33,0,0,0-.6,1.17,1.27,1.27,0,0,0,.41,1A1.6,1.6,0,0,0,232.23,168.4Z"/><path class="cls-10" d="M241.3,158.12v2.31H243V162H241.3v5.31a1.2,1.2,0,0,0,.22.79,1,1,0,0,0,.77.24,3.27,3.27,0,0,0,.75-.09v1.65a5.13,5.13,0,0,1-1.41.21c-1.64,0-2.46-.91-2.46-2.72V162H237.6v-1.58h1.57v-2.31Z"/><path class="cls-10" d="M245.37,169.94V162h-1.46v-1.58h1.46v-.87a3.28,3.28,0,0,1,.87-2.44,3.36,3.36,0,0,1,2.47-.86,5.17,5.17,0,0,1,1.19.15l-.05,1.67A4.92,4.92,0,0,0,249,158a1.38,1.38,0,0,0-1.53,1.58v.84h1.93V162H247.5v7.93Z"/><path class="cls-10" d="M250.59,165.1a5.62,5.62,0,0,1,.56-2.52,4.06,4.06,0,0,1,1.55-1.72,4.42,4.42,0,0,1,2.31-.61,4.17,4.17,0,0,1,3.12,1.24,4.93,4.93,0,0,1,1.3,3.29v.5a5.69,5.69,0,0,1-.54,2.52,4,4,0,0,1-1.55,1.71,4.47,4.47,0,0,1-2.33.61,4.14,4.14,0,0,1-3.22-1.34,5.19,5.19,0,0,1-1.21-3.58Zm2.14.18a3.79,3.79,0,0,0,.61,2.3,2.12,2.12,0,0,0,3.37,0,4.27,4.27,0,0,0,.6-2.47,3.82,3.82,0,0,0-.62-2.29,2.09,2.09,0,0,0-3.34,0A4.14,4.14,0,0,0,252.73,165.28Z"/><path class="cls-10" d="M266.22,162.38a4.94,4.94,0,0,0-.87-.07,2,2,0,0,0-2,1.13v6.5h-2.13v-9.51h2l.05,1.06a2.42,2.42,0,0,1,2.14-1.24,2,2,0,0,1,.76.13Z"/><path class="cls-10" d="M269.58,160.43l.06,1a3.42,3.42,0,0,1,2.74-1.17,2.64,2.64,0,0,1,2.61,1.46,3.39,3.39,0,0,1,2.92-1.46,3,3,0,0,1,2.34.87,3.8,3.8,0,0,1,.79,2.57v6.25H278.9v-6.19a1.89,1.89,0,0,0-.39-1.32,1.69,1.69,0,0,0-1.31-.43,1.78,1.78,0,0,0-1.19.39,2.17,2.17,0,0,0-.65,1v6.52h-2.13v-6.26a1.53,1.53,0,0,0-1.72-1.68,1.89,1.89,0,0,0-1.82,1.05v6.89h-2.13v-9.51Z"/><rect class="cls-8" x="12.17" y="193.88" width="694.57" height="1.25"/><rect class="cls-8" x="393.49" y="357.97" width="1.25" height="35.22" transform="translate(-139.06 265.56) rotate(-31.96)"/><polygon class="cls-8" points="381.99 363.79 381.71 355.69 388.86 359.5 381.99 363.79"/><polygon class="cls-8" points="399.38 391.65 406.53 395.46 406.25 387.37 399.38 391.65"/><rect class="cls-8" x="336.55" y="374.95" width="35.22" height="1.25" transform="translate(-151.98 477.1) rotate(-58.02)"/><polygon class="cls-8" points="359.41 359.5 366.56 355.69 366.29 363.79 359.41 359.5"/><polygon class="cls-8" points="342.02 387.37 341.75 395.46 348.9 391.65 342.02 387.37"/><rect class="cls-8" x="581.61" y="361.52" width="1.25" height="35.22"/><polygon class="cls-8" points="578.19 362.71 582.24 355.69 586.29 362.71 578.19 362.71"/><polygon class="cls-8" points="578.19 395.55 582.24 402.57 586.29 395.55 578.19 395.55"/><rect class="cls-8" x="601.59" y="357.97" width="1.25" height="35.22" transform="translate(-107.52 375.72) rotate(-31.96)"/><polygon class="cls-8" points="590.09 363.79 589.81 355.69 596.96 359.5 590.09 363.79"/><polygon class="cls-8" points="607.48 391.65 614.63 395.46 614.35 387.37 607.48 391.65"/><rect class="cls-8" x="544.65" y="374.95" width="35.22" height="1.25" transform="translate(-54.09 653.62) rotate(-58.02)"/><polygon class="cls-8" points="567.51 359.5 574.66 355.69 574.39 363.79 567.51 359.5"/><polygon class="cls-8" points="550.13 387.37 549.85 395.46 557 391.65 550.13 387.37"/><path class="cls-1" d="M513.81,468.89v3h-1.75v-8.52h3.32a3.92,3.92,0,0,1,1.69.35,2.66,2.66,0,0,1,1.12,1,2.78,2.78,0,0,1,.39,1.47,2.47,2.47,0,0,1-.86,2,3.57,3.57,0,0,1-2.37.72Zm0-1.42h1.57a1.53,1.53,0,0,0,1.06-.33,1.21,1.21,0,0,0,.37-.94,1.44,1.44,0,0,0-.37-1,1.39,1.39,0,0,0-1-.4h-1.61Z"/><path class="cls-1" d="M521.54,470.48h3.73v1.41h-5.49v-8.52h1.76Z"/><path class="cls-1" d="M532.58,469.05a3,3,0,0,1-1,2.17,3.6,3.6,0,0,1-2.41.79,3.2,3.2,0,0,1-2.58-1.11,4.48,4.48,0,0,1-.94-3v-.52a5.13,5.13,0,0,1,.43-2.17,3.22,3.22,0,0,1,1.24-1.43,3.86,3.86,0,0,1,4.24.29,3.25,3.25,0,0,1,1.05,2.21h-1.76a1.75,1.75,0,0,0-.46-1.19,1.68,1.68,0,0,0-1.2-.38,1.48,1.48,0,0,0-1.31.63,3.55,3.55,0,0,0-.45,1.95v.65a3.78,3.78,0,0,0,.42,2,1.47,1.47,0,0,0,1.32.63,1.72,1.72,0,0,0,1.21-.37,1.67,1.67,0,0,0,.46-1.15Z"/><path class="cls-1" d="M574.12,468.89v3h-1.75v-8.52h3.32a3.92,3.92,0,0,1,1.69.35,2.6,2.6,0,0,1,1.12,1,2.78,2.78,0,0,1,.39,1.47,2.44,2.44,0,0,1-.86,2,3.57,3.57,0,0,1-2.37.72Zm0-1.42h1.57a1.51,1.51,0,0,0,1.06-.33,1.18,1.18,0,0,0,.37-.94,1.4,1.4,0,0,0-.37-1,1.38,1.38,0,0,0-1-.4h-1.61Z"/><path class="cls-1" d="M581.85,470.48h3.73v1.41H580.1v-8.52h1.75Z"/><path class="cls-1" d="M592.9,469.05a3,3,0,0,1-1,2.17,3.59,3.59,0,0,1-2.41.79,3.21,3.21,0,0,1-2.58-1.11,4.53,4.53,0,0,1-.94-3v-.52a5.28,5.28,0,0,1,.43-2.17,3.28,3.28,0,0,1,1.24-1.43,3.42,3.42,0,0,1,1.87-.5,3.47,3.47,0,0,1,2.38.79,3.24,3.24,0,0,1,1,2.21h-1.76a1.7,1.7,0,0,0-.46-1.19,1.68,1.68,0,0,0-1.2-.38,1.49,1.49,0,0,0-1.31.63,3.55,3.55,0,0,0-.45,1.95v.65a3.78,3.78,0,0,0,.42,2,1.47,1.47,0,0,0,1.32.63,1.72,1.72,0,0,0,1.21-.37,1.67,1.67,0,0,0,.46-1.15Z"/><path class="cls-1" d="M634.33,468.89v3h-1.75v-8.52h3.32a3.92,3.92,0,0,1,1.69.35,2.6,2.6,0,0,1,1.12,1,2.78,2.78,0,0,1,.39,1.47,2.44,2.44,0,0,1-.86,2,3.57,3.57,0,0,1-2.37.72Zm0-1.42h1.57a1.51,1.51,0,0,0,1.06-.33,1.18,1.18,0,0,0,.37-.94,1.4,1.4,0,0,0-.37-1,1.36,1.36,0,0,0-1-.4h-1.61Z"/><path class="cls-1" d="M642.06,470.48h3.73v1.41h-5.48v-8.52h1.75Z"/><path class="cls-1" d="M653.11,469.05a3,3,0,0,1-1,2.17,3.59,3.59,0,0,1-2.41.79,3.21,3.21,0,0,1-2.58-1.11,4.53,4.53,0,0,1-.94-3v-.52a5.13,5.13,0,0,1,.44-2.17,3.2,3.2,0,0,1,1.23-1.43,3.42,3.42,0,0,1,1.87-.5,3.47,3.47,0,0,1,2.38.79,3.24,3.24,0,0,1,1,2.21h-1.76a1.7,1.7,0,0,0-.46-1.19,1.68,1.68,0,0,0-1.2-.38,1.49,1.49,0,0,0-1.31.63,3.55,3.55,0,0,0-.45,1.95v.65a3.78,3.78,0,0,0,.42,2,1.47,1.47,0,0,0,1.32.63,1.72,1.72,0,0,0,1.21-.37,1.67,1.67,0,0,0,.46-1.15Z"/></g></g></svg>